<?xml version="1.0" encoding="UTF-8"?>
<svg xmlns="http://www.w3.org/2000/svg" width="160" height="220" viewBox="-80 -150 160 220"><g transform="translate(0.00 0.00) scale(1 1) rotate(0)" opacity="1"><g transform="translate(0 0)"><g transform="rotate(0) scale(1 1)"><path d="M -9.99 0.00 Q -9.99 0.00 -7.96 2.49 Q -5.94 4.97 -6.27 7.66 Q -6.60 10.34 -7.05 13.67 Q -7.50 17.00 -7.93 20.27 Q -8.36 23.54 -8.65 26.83 Q -8.94 30.13 -10.96 33.06 Q -12.99 36.00 -13.00 36.00 Q -13.00 36.00 -13.00 36.00 Q -13.01 36.00 -14.97 34.16 Q -16.93 32.32 -17.07 30.00 Q -17.20 27.68 -17.26 25.35 Q -17.32 23.02 -17.32 20.69 Q -17.32 18.36 -17.19 16.03 Q -17.06 13.69 -16.79 11.29 Q -16.53 8.90 -16.02 6.10 Q -15.51 3.30 -12.76 1.65 Z" fill="#23201D"></path><path d="M 10.01 -0.00 Q 10.01 -0.00 12.76 1.65 Q 15.50 3.30 16.01 6.10 Q 16.53 8.90 16.74 11.30 Q 16.95 13.70 17.07 16.04 Q 17.19 18.38 17.18 20.70 Q 17.18 23.03 17.11 25.36 Q 17.04 27.68 16.87 30.00 Q 16.70 32.32 14.85 34.16 Q 13.01 36.00 13.00 36.00 Q 13.00 36.00 13.00 36.00 Q 12.99 36.00 11.06 33.06 Q 9.13 30.12 8.82 26.83 Q 8.50 23.53 8.06 20.26 Q 7.63 16.99 7.12 13.66 Q 6.61 10.34 6.28 7.66 Q 5.94 4.97 7.97 2.49 Z" fill="#23201D"></path><g transform="translate(-17 39.5)"><g transform="translate(0 0) rotate(0) scale(1 1)" opacity="1"><g><path d="M-2.7777543875326693 -5.33640146481548 C-0.67309023221926 -5.747921723955152, 2.5847167268268896 -5.68313877434346, 4.745189199817319 -5.289999676377161 C6.9056616728077485 -4.8968605784108625, 9.27053871113295 -4.033093172765222, 10.185080450409908 -2.9775668770176895 C11.099622189686865 -1.922040581270157, 11.007835034877218 -0.24672811368228342, 10.232439635479068 1.0431580981080335 C9.457044236080918 2.3330443098983507, 7.50016330972968 3.9036722337686443, 5.532708054021011 4.761750393724212 C3.5652527983123425 5.619828553679779, 0.4895173388015719 6.3197386437301075, -1.5722918987729453 6.191627057841438 C-3.6341011363474625 6.063515471952768, -5.296634234640602 4.8382538863920415, -6.838147371426091 3.993080878392192 C-8.379660508211579 3.147907870392342, -10.630759049306409 2.2203087596754596, -10.821370719485877 1.120589009842341 C-11.011982389665345 0.020869260009222623, -9.443649118874237 -1.5739247120432063, -7.981817392502901 -2.605237620606518 C-6.519985666131564 -3.6365505291698295, -2.9471360888421336 -4.555897584578725, -2.050380361257859 -5.067288441537529 C-1.153624633673584 -5.578679298496333, -2.553548279811118 -5.658882509797367, -2.601283026997252 -5.673582762359343 M0.0169617270900623 -6.172479968738876 C2.100060349680701 -6.211054380593459, 5.203772869680815 -4.929049858819011, 6.749706873788615 -4.070352259704298 C8.295640877896414 -3.211654660589585, 9.028721372706269 -2.2927367247176162, 9.29256575173686 -1.0202943740505983 C9.55641013076745 0.25214797661641986, 9.3693167362395 2.42485601664266, 8.332773147972155 3.5643018442978107 C7.296229559704812 4.703747671952962, 4.930940050424158 5.5482698315763646, 3.073304222132798 5.816380591880309 C1.2156683938414383 6.084491352184253, -0.6644746132531525 5.742012640491919, -2.813041821776004 5.172966406121475 C-4.961609030298855 4.603920171751031, -8.692542480885278 3.574264517057288, -9.81809902900431 2.4021031856576425 C-10.943655577123343 1.2299418542579967, -10.189017694350218 -0.8149775650871094, -9.566381110490202 -1.8600015822764 C-8.943744526630185 -2.9050255994656906, -7.778986109077257 -3.2824216227352343, -6.08227952584421 -3.868040917478101 C-4.385572942611162 -4.453660212220968, -0.2243390367692053 -5.111932339956213, 0.6138583889080825 -5.3737173507336005 C1.4520558145853704 -5.635502361510988, -0.7800538441981875 -5.554348262683972, -1.0530949717804823 -5.438750982142427" stroke="none" stroke-width="0" fill="#23201D" stroke-linecap="round" stroke-linejoin="round"></path><path d="M-2.952010599510274 -5.305885027280167 C-0.9512590468762787 -5.737925229976884, 1.3571519066075468 -6.147500387123979, 3.4328899696677038 -5.611872353176891 C5.508628032727861 -5.0762443192298035, 8.302175708485539 -3.2964295431561883, 9.502417778850667 -2.0921168235976415 C10.702659849215795 -0.8878041040390949, 11.04143810637348 0.43489911607270737, 10.63434239185847 1.6140039641743873 C10.227246677343459 2.793108812276067, 8.781758852148808 4.405604001381861, 7.059843491760608 4.9825122650124385 C5.337928131372408 5.559420528643016, 2.56811039868558 5.206994221441896, 0.30285022952926527 5.075453545957853 C-1.9624099396270496 4.94391287047381, -4.842298490517056 4.877018294652164, -6.5317175231772815 4.193268212108182 C-8.221136555837507 3.5095181295642006, -9.484054595896605 2.1704004552951845, -9.83366396643209 0.9729530506939624 C-10.183273336967574 -0.2244943539072598, -9.941276748283677 -1.7852813886509662, -8.629373746390188 -2.991416215499151 C-7.317470744496699 -4.197551042347336, -3.297731991470885 -5.941608033279659, -1.962245955071157 -6.263855910395147 C-0.626759918671429 -6.586103787510636, -0.6033008202833259 -5.102288325926839, -0.6164575279918201 -4.924903478192081 M2.087763000381886 -6.44033232776718 C4.252909482668411 -6.342168853373524, 6.929066818731233 -3.911691621147468, 8.2077944594073 -3.0276189763825383 C9.486522100083366 -2.1435463316176087, 9.886763653561879 -2.218092907047288, 9.760128844438288 -1.1358964591776015 C9.633494035314698 -0.05370001130791513, 8.527061483538144 2.297280663032335, 7.447985604665755 3.46555971083558 C6.368909725793365 4.633838758638825, 5.221493749922488 5.7876822205362215, 3.285673571203951 5.873777827641868 C1.3498533924854135 5.959873434747515, -2.0069880369999766 4.509413937103121, -4.1669354676454695 3.98213335346946 C-6.326882898290963 3.4548527698357994, -8.821957370969711 3.753923673182231, -9.674011012669007 2.7100943258399055 C-10.526064654368303 1.6662649784975796, -10.121803772969844 -1.0567061430258045, -9.27925731784125 -2.2808427305844954 C-8.436710862712655 -3.504979318143186, -6.349782520707602 -3.944591047271815, -4.6187322818974375 -4.634725199512239 C-2.887682043087273 -5.3248593517526634, 0.2141478686115007 -6.161622089642129, 1.1070441150197374 -6.421647644027042 C1.9999403614279743 -6.681673198411954, 0.755093873351713 -6.343269455384576, 0.7386451965519824 -6.194878525821715" stroke="#23201D" stroke-width="2" fill="none" stroke-linecap="round" stroke-linejoin="round"></path></g></g></g><g transform="translate(17 39.5)"><g transform="translate(0 0) rotate(0) scale(1 1)" opacity="1"><g><path d="M-2.896647297460627 -5.225540984274727 C-1.0987727281663804 -5.457130185578327, 1.8526664100700772 -4.938432734196713, 3.771769240477974 -4.541586821108321 C5.69087207088587 -4.144740908019928, 7.505633942060818 -3.891605911302551, 8.617969684986754 -2.844465505744372 C9.73030542791269 -1.7973251001861934, 10.859117852108561 0.4456580665421226, 10.445783698033587 1.7412556122407525 C10.032449543958613 3.0368531579393823, 7.971984642987542 4.341099281751043, 6.137964760536905 4.929119768447408 C4.303944878086267 5.517140255143773, 1.573155200010422 5.325739514867876, -0.558335596670237 5.269378532418942 C-2.689826393350896 5.213017549970009, -5.124954705161405 5.309660476555985, -6.650980019547051 4.590953873753807 C-8.177005333932698 3.872247270951629, -9.55562784088801 2.3168080915683555, -9.714487482984113 0.9571389156058734 C-9.873347125080217 -0.40253026035660855, -8.912864636947795 -2.4917646881530504, -7.604137872123673 -3.567061182021084 C-6.295411107299551 -4.642357675889118, -3.0537003793205937 -5.257099643465105, -1.862126894039381 -5.494640047602327 C-0.6705534087581682 -5.7321804517395485, -0.6578587807978704 -4.959323240050269, -0.4546969604363964 -4.9923036068444135 M-2.6143426866391377 -5.161847662464071 C-0.5115611786347918 -5.364493936250522, 3.2033102033552483 -5.562939229965673, 5.0385272774713465 -5.243657431480078 C6.873744351587445 -4.924375632994483, 7.548696466814675 -4.517401058167138, 8.39695975805745 -3.246156871550501 C9.245223049300225 -1.9749126849338643, 10.597491914387547 1.1920459412123339, 10.128107024928 2.3838076882197425 C9.658722135468452 3.575569435227151, 7.3911970854821325 3.2124623848535605, 5.580650421300167 3.9044136104939513 C3.770103757118201 4.596364836134342, 1.3554298606954387 6.46286632393041, -0.7351729601637966 6.535515042062087 C-2.825775781023032 6.608163760193765, -5.50553788256293 5.477873301949495, -6.962966503855244 4.3403059192840185 C-8.420395125147559 3.2027385366185417, -9.16616475330437 0.9230095590841441, -9.479744687917686 -0.2898892539307732 C-9.793324622531001 -1.5027880669456903, -10.027490183550054 -1.9921601697702895, -8.844446111535142 -2.9370869588054846 C-7.66140203952023 -3.8820137478406798, -3.6085919216909415 -5.681228941101277, -2.381480255828214 -5.959449988141943 C-1.1543685899654865 -6.237671035182609, -1.624080269799809 -4.79897100817781, -1.4817761163587764 -4.606413241049482" stroke="none" stroke-width="0" fill="#23201D" stroke-linecap="round" stroke-linejoin="round"></path><path d="M2.540894784723152 -4.986436994489873 C4.454471377399418 -4.597949026942245, 7.076671051536715 -3.360905805727957, 8.277955457022893 -2.4900480951959842 C9.479239862509072 -1.6191903846640114, 9.894242459546852 -0.8439194765388662, 9.748601217640223 0.23870926870196385 C9.602959975733594 1.321338013942794, 8.860986955835036 3.06215145410321, 7.404108005583112 4.005724376248996 C5.947229055331187 4.949297298394782, 3.343441012551425 5.901613381945884, 1.0073275161286752 5.90014680157668 C-1.3287859802940745 5.898680221207476, -4.893516346314067 4.709884777622902, -6.6125729729533855 3.9969248940337696 C-8.331629599592704 3.2839650104446374, -8.976263813093208 2.783649008581218, -9.307012243707232 1.6223875000418877 C-9.637760674321257 0.4611259915025572, -9.410651455551138 -1.8676728867666685, -8.597063556637526 -2.970644157202213 C-7.783475657723914 -4.073615427637757, -6.36560747883242 -4.599866956031712, -4.42548485022556 -4.99544012257138 C-2.4853622216187006 -5.391013289111048, 1.7377766437542597 -5.2367575475155, 3.0436722150036326 -5.34408315644022 C4.349567786253005 -5.45140876536494, 3.3824936788516595 -5.612628253827253, 3.409888577270678 -5.639393776119699 M-1.0179408833754773 -5.818155217295328 C1.268493298782832 -5.937175709574101, 4.740901806152069 -5.6874224566371705, 6.58482125928743 -4.89100238576205 C8.42874071242279 -4.09458231488693, 9.503129667249288 -2.1883819057826526, 10.045575835436686 -1.0396347920446085 C10.588022003624085 0.10911232169343554, 10.859620762458945 0.9118834575594341, 9.839498268411822 2.001480296666214 C8.819375774364698 3.091077135772994, 5.936595759877603 4.752875388367421, 3.924840871153945 5.497946242596072 C1.9130859824302875 6.2430170968247225, -0.3127592945902562 6.90032435354092, -2.2310310639301236 6.47190542203812 C-4.149302833269991 6.043486490535319, -6.102772439922936 3.897866775602322, -7.58478974488526 2.927432653579265 C-9.066807049847583 1.956998531556208, -11.1815949537831 1.74954282259365, -11.123134893704064 0.6493006898997762 C-11.064674833625029 -0.45094144279409765, -8.880313403694391 -2.551993555798182, -7.2340293844110475 -3.674020142583978 C-5.587745365127704 -4.796046729369774, -2.238034412554573 -5.874853373617329, -1.2454307780040024 -6.082858830814997 C-0.2528271434534318 -6.290864288012665, -1.3776546322830243 -5.163216154162483, -1.2784075771076244 -4.922052885769984" stroke="#23201D" stroke-width="2" fill="none" stroke-linecap="round" stroke-linejoin="round"></path></g></g></g><path d="M -16.99 -55.99 Q -16.99 -55.99 -16.46 -52.88 Q -15.92 -49.76 -17.36 -47.43 Q -18.79 -45.11 -20.38 -42.19 Q -21.96 -39.26 -23.21 -36.26 Q -24.45 -33.25 -25.61 -30.16 Q -26.78 -27.07 -29.38 -24.54 Q -31.99 -22.00 -32.00 -22.00 Q -32.00 -22.00 -32.00 -22.00 Q -32.01 -22.00 -33.50 -24.31 Q -35.00 -26.63 -34.66 -29.11 Q -34.33 -31.60 -33.72 -34.02 Q -33.11 -36.44 -32.22 -38.76 Q -31.33 -41.07 -30.31 -43.35 Q -29.29 -45.63 -28.03 -47.89 Q -26.77 -50.14 -25.02 -52.64 Q -23.27 -55.13 -20.14 -55.57 Z" fill="#23201D"></path><path d="M 17.01 -56.01 Q 17.01 -56.01 20.19 -55.90 Q 23.38 -55.79 25.18 -53.46 Q 26.98 -51.13 28.25 -48.97 Q 29.51 -46.81 30.47 -44.59 Q 31.42 -42.38 32.09 -40.07 Q 32.76 -37.77 33.24 -35.42 Q 33.72 -33.07 33.95 -30.67 Q 34.18 -28.26 32.60 -26.13 Q 31.01 -24.00 31.00 -24.00 Q 31.00 -24.00 31.00 -24.00 Q 30.99 -24.00 28.64 -26.53 Q 26.28 -29.07 25.31 -31.97 Q 24.33 -34.86 23.03 -37.55 Q 21.74 -40.23 20.24 -42.86 Q 18.74 -45.49 17.34 -47.60 Q 15.93 -49.71 16.46 -52.85 Z" fill="#23201D"></path><g transform="translate(-32 -22)"><g transform="translate(0 0) rotate(0) scale(1 1)" opacity="1"><g><path d="M-2.2726049200289378 -7.4883207619246255 C-0.5286056678863387 -8.087469869368523, 2.256140785113009 -6.964118905620759, 3.721493052952393 -6.437196795080436 C5.186845320791777 -5.910274684540114, 5.751326624776929 -5.7598819529780005, 6.519508687007365 -4.326788098682692 C7.287690749237801 -2.893694244387383, 8.678459319299503 0.38656936306422307, 8.330585426335013 2.1613663306914184 C7.982711533370523 3.936163298318614, 5.844862261892765 5.281384365146338, 4.432265329220428 6.32199370708048 C3.0196683965480906 7.362603049014623, 1.4789925578504877 8.554608686852834, -0.14499616969901125 8.405022382296274 C-1.76898489724851 8.255436077739713, -4.053180154844691 6.799563318713177, -5.311667036076566 5.424475879741112 C-6.57015391730844 4.0493884407690475, -7.4508690859391695 1.5991691864997204, -7.695917457090256 0.15449774846388464 C-7.9409658282413425 -1.2901736895719509, -7.919384539066549 -1.8975797216052408, -6.781957262983083 -3.2435527484739017 C-5.644529986899617 -4.589525775342563, -1.8544214105457208 -7.238822472875368, -0.8713538005894579 -7.921340412748082 C0.1117138093668052 -8.603858352620795, -0.6835922952929414 -7.4562734122061745, -0.8835516032455039 -7.338660387710182 M0.1574383055594466 -6.925570547616859 C1.6176481482612541 -6.804714188775322, 4.060752193659156 -5.801577031108939, 5.522918808834456 -4.876258703273916 C6.985085424009756 -3.950940375438894, 8.684076736051685 -2.69679065122637, 8.930437996611246 -1.3736605806067226 C9.176799257170808 -0.05053050998707498, 8.179363086314952 1.5799564272942448, 7.001086372191822 3.0625217204439696 C5.822809658068692 4.545087013593695, 3.415029139210861 6.881108643074442, 1.8607777118724689 7.521731178291627 C0.3065262845340768 8.162353713508812, -0.9836568919355884 7.506887350598872, -2.32442219183853 6.906256931747079 C-3.665187491741472 6.305626512895287, -5.1189484466535395 5.284066912394037, -6.183814087545182 3.917948665180875 C-7.248679728436824 2.5518304179677127, -8.754370181617329 0.35815050648758207, -8.713616037188384 -1.2904525515318954 C-8.672861892759439 -2.9390556095513727, -7.446879995229668 -4.838051102497251, -5.939289220971507 -5.97366968293599 C-4.431698446713347 -7.1092882633747285, -0.727386666996959 -7.657531871748466, 0.3319286083605769 -8.104164034164329 C1.3912438837181127 -8.550796196580192, 0.4756866382474759 -8.666869969712579, 0.41660243117370843 -8.653462657431168" stroke="none" stroke-width="0" fill="#FDF8ED" stroke-linecap="round" stroke-linejoin="round"></path><path d="M-2.494273199684232 -7.540603326870125 C-0.8706059088405298 -8.258546800147814, 1.5049521196195723 -8.077944340735893, 2.964481046715677 -7.528458254745408 C4.424009973811781 -6.9789721687549235, 5.617616120140298 -5.590357926641645, 6.262900362892395 -4.243686810927216 C6.908184605644493 -2.8970156952127875, 6.936347875683019 -1.1879548589968758, 6.836186503228265 0.5515684395411666 C6.736025130773511 2.291091738079209, 6.7266801193012435 5.17235629763764, 5.6619321281638735 6.193452980301039 C4.597184137026503 7.214549662964439, 2.3200901592443386 6.75680659271304, 0.447698556404046 6.6781485355215615 C-1.4246930464362464 6.599490478330083, -4.1679478197133735 6.4261986221751375, -5.57241748887788 5.7215046371521705 C-6.976887158042387 5.0168106521292035, -7.684130752753504 4.049826825399799, -7.979119458582996 2.4499846253837623 C-8.274108164412489 0.8501424253677261, -8.525418368774853 -2.373258016089461, -7.342349723854837 -3.8775485629440456 C-6.159281078934821 -5.38183910979863, -2.0178645696768864 -6.00566616817202, -0.8807075890629015 -6.575758655743746 C0.2564493915510837 -7.145851143315472, -0.5460932692729078 -7.276113786785485, -0.5194078401709258 -7.298103488374402 M2.3244099802056843 -6.967595212190372 C3.9610447839353493 -6.997249440022297, 6.638311212434089 -6.680753988359797, 7.358616267489626 -5.50437863700614 C8.078921322545161 -4.328003285652484, 6.820556108338106 -1.9131525565568326, 6.646240310538903 0.09065689593156834 C6.471924512739699 2.094466348419969, 7.458742032627227 5.355956019750179, 6.312721480694405 6.518478077924266 C5.166700928761583 7.681000136098353, 1.4194787489490561 7.047087367121479, -0.22988300105803217 7.065789244976087 C-1.8792447510651205 7.084491122830695, -2.4670974619039647 7.624429911245296, -3.5834490193481248 6.630689345051912 C-4.699800576792285 5.636948778858527, -6.516150263924462 2.7951778425163356, -6.927992345722993 1.1033458478157787 C-7.339834427521524 -0.5884861468847782, -6.535957548343042 -2.0439235200208175, -6.054501510139308 -3.5203026231514296 C-5.573045471935574 -4.996681726282041, -5.357167366082561 -6.9348835036094165, -4.0392561165005905 -7.7549287709678945 C-2.7213448669186198 -8.574974038326372, 0.7486632274054206 -8.526502040892927, 1.8529659873525142 -8.440574227302298 C2.957268747299608 -8.354646413711668, 2.5313701471155086 -7.632839142267457, 2.586560443181971 -7.239361889424118" stroke="#23201D" stroke-width="2.8" fill="none" stroke-linecap="round" stroke-linejoin="round"></path></g></g></g><g transform="translate(31 -24)"><g transform="translate(0 0) rotate(0) scale(1 1)" opacity="1"><g><path d="M0.4112214192532514 -8.026614614198989 C1.894695946459191 -7.914471698626392, 4.267381113981942 -6.082541511857549, 5.4038201817543055 -4.917361889402259 C6.5402592495266685 -3.7521822669469693, 6.904462067229235 -2.5452524790583144, 7.229855825887431 -1.0355368794672504 C7.555249584545627 0.4741787201238137, 8.22482827353318 2.549312488546243, 7.35618273370348 4.140931708144125 C6.487537193873778 5.732550927742007, 3.7429151714285402 8.1226472583604, 2.017982586909223 8.514178438120043 C0.29305000238990564 8.905709617879685, -1.3368875789368284 7.421977228599261, -2.9934127734124236 6.490118786701979 C-4.649937967888019 5.5582603448046966, -7.262226143395735 4.2789615197295765, -7.921168579944348 2.923027786736348 C-8.580111016492962 1.5670940537431195, -7.359892339051771 -0.19121106518698272, -6.947067392704102 -1.645483611257391 C-6.534242446356433 -3.099756157327799, -6.814013386632461 -4.6418706361282425, -5.444218901858334 -5.8026074896861015 C-4.074424417084207 -6.963344343243961, -0.104645581446837 -8.404700814835374, 1.2716995159406608 -8.609904732604548 C2.6480446133281585 -8.815108650373721, 2.7687571141024243 -7.330694484374186, 2.8138516824666535 -7.033830996301144 M-2.2754851821110273 -8.217177624917598 C-0.7780972874625007 -8.629820019059045, 3.004734466447422 -9.14251803343801, 4.607942400343535 -8.379891498171496 C6.2111503342396475 -7.617264962904981, 7.040054622338793 -5.507132836253025, 7.34376242126565 -3.641418413318512 C7.647470220192506 -1.7757039903839986, 7.073921731074263 0.9773179120034987, 6.430189193904672 2.8143950394355848 C5.786456656735082 4.651472166867671, 4.632738072575454 6.466340492477584, 3.4813671982481074 7.381044351274004 C2.329996323920761 8.295748210070423, 1.127662222639651 8.47818316384254, -0.47803605205940713 8.302618192214103 C-2.0837343267584654 8.127053220585667, -4.883147473470943 7.61151169198441, -6.152822449946242 6.327654521503386 C-7.422497426421541 5.043797351022362, -7.963147047860859 2.3419614226824432, -8.096085910911203 0.5994751693279556 C-8.229024773961548 -1.1430110840265322, -8.163962241441642 -2.6325830027384356, -6.950455628248309 -4.127262998623541 C-5.736949015054977 -5.621942994508647, -1.7281146757137449 -7.963649808085836, -0.8150462317512112 -8.36860480598268 C0.09802221221132257 -8.773559803879523, -1.5008213833576234 -6.904708159513591, -1.472044964473107 -6.5569929860046035" stroke="none" stroke-width="0" fill="#FDF8ED" stroke-linecap="round" stroke-linejoin="round"></path><path d="M0.8504266396700387 -8.433943247813547 C2.6718432569712545 -8.294665804434064, 5.571110620504893 -5.986942508756785, 6.907426691516273 -4.560168778879626 C8.243742762527653 -3.1333950490024662, 9.101120521891314 -1.4338927126478973, 8.868323065738316 0.12669913144941142 C8.635525609585319 1.6872909755467203, 6.772307939950205 3.5230070528946165, 5.510641954598291 4.803382285704227 C4.248975969246376 6.083757518513838, 2.8988226965191615 7.351184657150142, 1.2983271536268288 7.808950528307076 C-0.3021683892655036 8.26671639946401, -2.542794549095202 8.21965394520133, -4.092331302755703 7.549977512645826 C-5.641868056416204 6.880301080090324, -7.502705379939791 5.511149094950124, -7.998893368336178 3.79089193297406 C-8.495081356732564 2.070634770997996, -7.791200343966277 -0.9448996764547786, -7.0694592331340225 -2.7715654592105587 C-6.347718122301768 -4.598231241966339, -5.280186593586279 -6.1776148658891445, -3.6684467033426515 -7.169102763560621 C-2.0567068130990243 -8.160590661232096, 1.7450489488783552 -8.7647885838476, 2.600980108327741 -8.720492845239413 C3.4569112677771265 -8.676197106631225, 1.722164646545278 -7.118032944968864, 1.4671402533536624 -6.90332833191149 M-4.592647428685408 -6.478268023918534 C-3.090808710300686 -7.386411819022968, -0.09631133608937104 -8.661977030767705, 1.934043496387475 -8.211516005404832 C3.964398328864321 -7.761054980041958, 6.522164776077675 -5.066404654294015, 7.589481566175668 -3.775501871741291 C8.656798356273661 -2.484599089188567, 8.553143675870542 -1.862026937583599, 8.337944236975435 -0.46609931008848837 C8.122744798080328 0.9298283174066223, 7.651596557114551 3.219016671255475, 6.29828493280503 4.600063893229374 C4.94497330849551 5.981111115203272, 2.0390428032871957 7.701826085825219, 0.21807449111831312 7.820184021754901 C-1.6028938210505692 7.938541957684583, -3.363151418835051 6.186022646216852, -4.627524940208264 5.310211508807463 C-5.891898461581478 4.434400371398073, -6.8584154471883725 3.8438132359947614, -7.368166637120968 2.565317197298564 C-7.8779178270535635 1.2868211586023668, -8.442006891090292 -0.5989977294122897, -7.686032079803838 -2.36076472336972 C-6.930057268517384 -4.122531717327151, -3.4229017033284044 -7.112340536200431, -2.8323177694022452 -8.00528476644602 C-2.241733835476086 -8.898228996691607, -3.9253339474066413 -7.727899090108571, -4.142528476246882 -7.718430104843246" stroke="#23201D" stroke-width="2.8" fill="none" stroke-linecap="round" stroke-linejoin="round"></path></g></g></g><g transform="translate(0 0) rotate(0) scale(1 1)" opacity="1"><g><path d="M-16.416276784241198 -55.096652106940745 L19.306145863234995 -57.63303578346968 L14.629696135222911 2.9621433451771737 L-13.678584952652454 0.12575051337480558" stroke="none" stroke-width="0" fill="#5B7FB9" stroke-linecap="round" stroke-linejoin="round"></path><path d="M-14.946103601157665 -56.366931481659414 C-6.854924498125909 -56.21442394488156, 5.098237331956628 -56.264356949260836, 17.792929573357107 -55.69656447917223 M-16.72520575299859 -56.206902994960544 C-4.505099747702479 -55.91461909168064, 9.772967530786993 -56.52794337623417, 17.37768786177039 -55.02922448143363 M17.093724174797536 -58.24035834819078 C14.379930367403476 -38.6656496382825, 11.160859711457789 -18.87854266050681, 11.316566248238086 1.269368700683117 M16.17648794874549 -56.55022610649466 C15.847943947971611 -34.4099609249182, 12.090653002862632 -9.997454361329225, 12.68150787577033 1.166671309620142 M13.110708017647266 -0.11328014880418769 C2.806464835815132 -0.31676029872149236, -5.198197962716222 2.637655451782048, -12.1005609318614 1.7232581183314324 M12.319278910011054 2.4122651435434816 C4.866754428483545 3.417784548960626, -1.206763857975604 1.2765778791531919, -11.425943014770747 3.0047340013086794 M-10.78377511948347 2.691207413375378 C-13.708649388135223 -15.81646728050038, -15.6398417035982 -34.27447872776612, -16.989262513816357 -56.09080442935228 M-11.910724470764398 2.1190717317163945 C-13.160480883377046 -14.2925110354431, -13.844411212517322 -29.840874823496495, -16.54996266141534 -57.04762917980552" stroke="#23201D" stroke-width="4.6" fill="none" stroke-linecap="round" stroke-linejoin="round"></path></g></g><g transform="translate(10 -100) rotate(6)"><g transform="translate(0 0) rotate(0) scale(1 1)" opacity="1"><g><path d="M10.832905825110382 -38.828599828107684 C18.39602134631966 -37.55072390530212, 27.36832700256761 -33.1229361541745, 32.75091256486689 -27.908742290397555 C38.13349812716616 -22.694548426620607, 41.94147546066977 -14.637077142784015, 43.12841919890603 -7.543436645445999 C44.31536293714229 -0.4497961481079811, 43.038931968883794 7.969292122079524, 39.87257499428445 14.65310069363055 C36.7062180196851 21.33690926518158, 30.501488184969713 28.059629679139118, 24.13027735130994 32.55941478386016 C17.759066517650165 37.059199888581205, 9.530590662299762 41.24302649012113, 1.6453099923258097 41.651811321956814 C-6.239970677648142 42.060596153792495, -16.5012508890317 38.84403790873131, -23.181406668533768 35.01212377487426 C-29.861562448035837 31.180209641017214, -35.05093817005273 25.233109509664644, -38.43562468468661 18.66032651881452 C-41.820311199320486 12.0875435279644, -44.113537900553126 3.054726402466306, -43.48952575633703 -4.42457417022647 C-42.865513612120935 -11.903874742919246, -39.438834260419895 -20.39612125282521, -34.691551819390014 -26.215476917342137 C-29.944269378360133 -32.034832581859064, -22.903188751543986 -37.275734784119635, -15.005831110157741 -39.34070815732803 C-7.108473468771498 -41.40568153053643, 7.851397646930042 -38.83741431438008, 12.692594028927445 -38.60531715659249 C17.533790410924848 -38.373219998804906, 14.412647162139141 -38.653637006273215, 14.041347181826675 -37.94812521060252 M1.1358758069177268 -40.79638654452822 C8.54788322455224 -41.37674767641856, 18.068540513178675 -37.21187417974889, 24.391204858576884 -33.38694599697973 C30.713869203975094 -29.562017814210577, 35.66690484409836 -24.572385599704415, 39.07186187930697 -17.84681744791329 C42.47681891451558 -11.121249296122162, 45.81204226504401 -0.5447386949784638, 44.820947069828534 6.9664629137670335 C43.829851874613055 14.47766452251253, 38.71381258590378 21.64149833894901, 33.125290708014084 27.22039220455969 C27.53676883012439 32.799286070170375, 18.938996082857745 38.2731431836099, 11.289815802490374 40.439826107431124 C3.640635522123003 42.606509031252344, -5.193074355337952 42.450693697876055, -12.769790974190137 40.22048974748701 C-20.346507593042322 37.99028579709796, -29.22098647157105 32.87665537956359, -34.170483910622735 27.058602405096856 C-39.11998134967442 21.24054943063013, -41.55721851133502 13.036572234358452, -42.46677560850025 5.312171900686637 C-43.376332705665476 -2.412228432985179, -42.916756055914824 -12.742260564066267, -39.627826493614116 -19.287799596934036 C-36.33889693131341 -25.833338629801805, -29.424989418999335 -30.449597150628378, -22.73319823469598 -33.96106229651997 C-16.041407050392625 -37.47252744241156, -3.44467244729501 -39.301292689807646, 0.5229206122060116 -40.35659047228358 C4.490513671707033 -41.41188825475951, 1.08632274479616 -40.69405667353578, 1.072360122310152 -40.29284899137558" stroke="none" stroke-width="0" fill="#FDF8ED" stroke-linecap="round" stroke-linejoin="round"></path><path d="M21.444733774443346 -34.80399392361943 C28.475497468480693 -31.85773005122923, 35.84795312479261 -26.542331578883495, 39.71979759681149 -19.919226520003217 C43.59164206883037 -13.29612146112294, 45.486477305929746 -2.5650363719555953, 44.67580060655662 4.934636429662229 C43.865123907183495 12.434309231280054, 40.08546092393784 19.35865271017429, 34.85573740057274 25.07881028970373 C29.626013877207647 30.798967869233167, 20.66826255249339 36.70503272571371, 13.29745946636605 39.25558190683886 C5.92665638023871 41.80613108796402, -1.9979277724339113 42.275245473352484, -9.369081116191296 40.38210537645465 C-16.74023445994868 38.48896527955682, -25.148322709369584 33.282672581452424, -30.929460596178256 27.896741325451874 C-36.71059848298693 22.510810069451324, -42.46858606749653 15.279703678983271, -44.055908437043335 8.066517840451365 C-45.64323080659014 0.8533320019194575, -43.66348881276437 -8.447336185780225, -40.45339481345906 -15.38237370573957 C-37.243300814153756 -22.317411225698912, -31.19017241645029 -29.363463684286867, -24.79534444121147 -33.543707279304705 C-18.400516465972647 -37.72395087432255, -11.438197903716182 -41.58825195947462, -2.0844269620261344 -40.463835275846606 C7.269343979663914 -39.33941859221859, 24.3213829616619 -30.73795392033834, 31.327281208928817 -26.797207177536613 C38.33317945619574 -22.856460434734885, 40.25517695196834 -17.01105937629663, 39.95096252157537 -16.819354819036224 M-6.15836843675152 -41.90572199715313 C1.2443142200811463 -43.71623850909445, 11.020965622717458 -39.9700163259435, 17.94269890770053 -36.72784192752764 C24.864432192683605 -33.48566752911179, 31.020712826763884 -28.144517755247367, 35.372031273146916 -22.452675606658016 C39.72334971952995 -16.760833458068664, 43.493141968544435 -9.636234138053709, 44.050609585998735 -2.5767890359915384 C44.608077203453036 4.482656066070632, 42.56084472138125 13.42019988945123, 38.716836977872696 19.903995005715004 C34.87282923436414 26.387790121978778, 28.20394054619638 32.57128429432566, 20.9865631249474 36.3259816615911 C13.769185703698415 40.080679028856544, 3.353509443311836 43.2242001160607, -4.587427549621206 42.43217920930768 C-12.528364542554248 41.64015830255465, -20.747572388005022 36.35646099241568, -26.65905883265085 31.573856221072962 C-32.570545277296674 26.791251449730247, -37.43367317189086 20.955321867919192, -40.05634621749616 13.736550581251395 C-42.679019263101466 6.517779294583598, -44.40277193520776 -4.673608456415699, -42.39509710628269 -11.738771498933817 C-40.38742227735762 -18.803934541451934, -33.8166998787464 -23.966585896155806, -28.010297243945754 -28.654427673857313 C-22.203894609145113 -33.34226945155882, -10.688057240896457 -38.30987218275751, -7.556681297478841 -39.86582216514286 C-4.425305354061225 -41.42177214752821, -9.432245838256367 -38.42809366573573, -9.222041583440054 -37.99012756816943" stroke="#23201D" stroke-width="4.6" fill="none" stroke-linecap="round" stroke-linejoin="round"></path></g></g><path d="M -11.01 -38.00 Q -11.01 -38.00 -13.91 -41.18 Q -16.81 -44.37 -13.75 -49.18 Q -10.68 -53.98 -4.34 -51.99 Q 2.00 -50.01 2.00 -50.00 Q 2.00 -50.00 2.00 -50.00 Q 2.00 -49.99 -3.58 -49.47 Q -9.15 -48.95 -9.81 -46.89 Q -10.47 -44.83 -10.73 -41.42 Z" fill="#23201D"></path><path d="M 4.99 -40.00 Q 4.99 -40.00 2.65 -43.89 Q 0.30 -47.79 4.43 -53.28 Q 8.55 -58.76 13.28 -55.39 Q 18.00 -52.01 18.00 -52.00 Q 18.00 -52.00 18.00 -52.00 Q 18.00 -51.99 12.57 -52.51 Q 7.15 -53.02 7.10 -50.54 Q 7.06 -48.05 6.03 -44.03 Z" fill="#23201D"></path><path d="M 17.99 -35.00 Q 17.99 -35.00 17.71 -39.35 Q 17.43 -43.69 23.07 -46.61 Q 28.72 -49.53 30.36 -45.77 Q 32.01 -42.01 32.00 -42.00 Q 32.00 -42.00 32.00 -42.00 Q 31.99 -41.99 28.46 -43.60 Q 24.92 -45.21 24.39 -43.02 Q 23.85 -40.83 20.93 -37.91 Z" fill="#23201D"></path><g transform="translate(-16 -6)"><g transform="translate(0 0) rotate(0) scale(1 1)" opacity="1"><g><path d="M0.4464935246393027 -8.508020345279986 C2.1904288134159717 -8.576257115677251, 4.6959603450332565 -7.928020892093847, 6.086267735360175 -6.612321009934646 C7.476575125687093 -5.2966211277754445, 8.544000574371056 -2.4988966535286687, 8.788337866600811 -0.6138210523247781 C9.032675158830566 1.2712545488791127, 8.674770757979097 3.05305061320845, 7.5522914887387 4.698132597288699 C6.429812219498301 6.343214581368947, 3.8188331280735888 8.781200651728572, 2.0534622511584235 9.256670852156715 C0.28809137424325826 9.732141052584858, -1.3495609500201944 8.523992678708039, -3.039933772752293 7.5509537998575595 C-4.730306595484391 6.57791492100708, -7.206957853041036 5.220789195140966, -8.088774685234167 3.4184375790538413 C-8.970591517427298 1.6160859629667161, -8.773054193826738 -1.539762962960394, -8.330834765911078 -3.263155896665191 C-7.888615337995417 -4.986548830369988, -7.059276496608999 -5.9700802838999625, -5.435458117740204 -6.921920023174939 C-3.811639738871409 -7.873759762449916, 0.10892700080978268 -8.835466300370069, 1.4120755073016928 -8.974194332315053 C2.715224013793603 -9.112922364260037, 2.3189442666591664 -8.035648887087017, 2.383432921211258 -7.754288214844847 M0.814618914502096 -8.59273027310738 C2.3621188221977554 -8.541156643459349, 4.165989452776026 -7.386019873599391, 5.431579500544408 -6.037834872334954 C6.6971695483127895 -4.689649871070516, 8.13192305812884 -2.4081502532395476, 8.408159201112388 -0.5036202655207564 C8.684395344095936 1.4009097221980347, 7.893278911349992 3.961154624391358, 7.088996358445689 5.389345053977793 C6.284713805541386 6.817535483564229, 5.178576007960087 7.498068907710341, 3.5824638836865668 8.065522311997858 C1.9863517594130458 8.632975716285376, -0.7712206488476452 9.518205798657018, -2.487676387195437 8.794065479702898 C-4.204132125543229 8.069925160748777, -5.754474786595274 5.432208443913334, -6.716270546400184 3.7206803982731373 C-7.6780663062050944 2.0091523526329405, -8.526652921268898 0.11914358785028578, -8.258450946024897 -1.4751027941382842 C-7.990248970780898 -3.0693491761268543, -6.686647718458236 -4.416074830366178, -5.1070586949361845 -5.844797893658283 C-3.527469671414133 -7.273520956950389, 0.15387868757957435 -9.36746229502922, 1.2190831951074117 -10.047441173890919 C2.284287702635249 -10.727420052752617, 1.588052992260679 -10.40682161453526, 1.28416835023084 -9.924671166828471" stroke="none" stroke-width="0" fill="#F7F3E9" stroke-linecap="round" stroke-linejoin="round"></path><path d="M-3.534395453322385 -8.903617809002059 C-2.046185723068689 -9.845359728679703, 0.19782820110860322 -9.635352098084603, 2.126895384033961 -8.95689480669135 C4.055962566959319 -8.278437515298098, 6.864545519380815 -6.601981643754998, 8.040007644229762 -4.832874060642548 C9.215469769078709 -3.0637664775300983, 9.522302181043417 -0.3793747369261844, 9.179668133127644 1.6577506919833502 C8.83703408521187 3.694876120892885, 7.375009391668281 6.05423030755203, 5.984203356735123 7.389878512814659 C4.593397321801965 8.725526718077287, 2.6101873857059097 9.58952993911385, 0.8348319235286935 9.671639923559123 C-0.9405235386485226 9.753749908004396, -3.2036812077413286 9.038736333683206, -4.667929416328173 7.882538419486295 C-6.132177624915017 6.726340505289384, -7.534527503814568 4.664092757179639, -7.950657327992374 2.7344524383776605 C-8.36678715217018 0.8048121195756817, -7.970092394826632 -1.7363123239298066, -7.164708361395015 -3.695303493325579 C-6.359324327963399 -5.654294662721352, -4.061390578179951 -8.285608367616355, -3.1183531274026746 -9.019494577996975 C-2.175315676625398 -9.753380788377594, -1.6385000860316734 -8.258607540001282, -1.5064836567313544 -8.0986207556093 M0.8464118840511651 -8.615913040081722 C2.705957165879935 -8.472109644836843, 5.8033326913465775 -6.610428951971769, 7.254308883177747 -5.148457053042005 C8.705285075008916 -3.6864851541122414, 9.740904572350496 -1.5639553301215732, 9.552269035038183 0.15591835349685956 C9.36363349772587 1.8757920371152923, 7.691383607537919 3.574744962815971, 6.122495659303863 5.1707850486685905 C4.553607711069807 6.76682513452121, 2.0541285549231674 9.157187765518433, 0.13894134563384664 9.732158868612578 C-1.776245863655474 10.307129971706722, -4.005778150670061 9.945093127379515, -5.368627596432063 8.62061166723346 C-6.731477042194065 7.296130207087405, -7.367401062376399 3.8886756258355684, -8.038155328938165 1.7852701077362452 C-8.708909595499932 -0.31813541036307824, -9.925496077331703 -2.5310890053824258, -9.39315319580266 -3.9998214413624806 C-8.860810314273616 -5.4685538773425355, -6.687816525703057 -6.010149073249739, -4.844098039763903 -7.027124508144083 C-3.0003795538247493 -8.044099943038427, 0.5968166854045809 -9.620906634826998, 1.6691577198322642 -10.101674050728542 C2.741498754259948 -10.582441466630087, 1.4432570183447129 -10.11872232933261, 1.5899481668021966 -9.911729003553353" stroke="#23201D" stroke-width="2.7" fill="none" stroke-linecap="round" stroke-linejoin="round"></path></g></g><g transform="translate(0.00 0.00)"><g transform="translate(0 0) rotate(0) scale(1 1)" opacity="1"><g><path d="M0.07426584348890503 -4.239666851446652 C0.9840884271012165 -4.234979021402844, 2.6593233084482883 -3.8774015351068223, 3.4160956387386783 -3.2404018024450294 C4.172867969029068 -2.6034020697832365, 4.612304161728755 -1.3460396618226407, 4.614899825231244 -0.41766845547589504 C4.6174954887337325 0.5107027508708506, 4.050475834281846 1.5665958288364168, 3.4316696197536105 2.329825435635444 C2.8128634052253747 3.0930550424344716, 1.8091877251601 3.9510832479345983, 0.9020625380618287 4.16170918531827 C-0.005062649036442712 4.372335122701942, -1.1884815467052725 3.9294545817455946, -2.011081502836018 3.593581059937475 C-2.8336814589667636 3.257707538129355, -3.6997701992217666 2.8827608785472965, -4.033537198722645 2.146468054469551 C-4.367304198223524 1.4101752303918058, -4.257729408384732 0.0661494582949137, -4.01368349984129 -0.8241758845289981 C-3.7696375912978475 -1.71450122735291, -3.28470516770648 -2.5960983371145345, -2.5692617474619937 -3.1954840024739206 C-1.8538183272175073 -3.7948696678333067, -0.2401120696913892 -4.298055208346664, 0.278977021625628 -4.420489876685314 C0.7980661129426452 -4.542924545023963, 0.5680985452977232 -4.085567003406511, 0.5452728004401094 -3.930092012505818" stroke="none" stroke-width="0" fill="#23201D" stroke-linecap="round" stroke-linejoin="round"></path><path d="M0.14837772624736986 -4.13526724996595 C1.051731047182377 -4.15222658736693, 2.001157259487216 -4.026116004192858, 2.69076138511823 -3.418622116186161 C3.380365510749244 -2.8111282281794647, 4.139693391316216 -1.3918662192927993, 4.286002480033454 -0.4903039219257719 C4.432311568750691 0.41125837544125543, 3.992311443061211 1.2298144023124624, 3.5686159174216545 1.9907516680160031 C3.144920391782098 2.751688933719544, 2.5475649732981385 3.7790090378916963, 1.7438293261961133 4.075319672295472 C0.9400936790940879 4.371630306699248, -0.29872460086251196 4.139189239036385, -1.253797965190498 3.7686154744386573 C-2.208871329518484 3.3980417098409297, -3.4643286833087164 2.5979279487623037, -3.986610859771803 1.8518770847091057 C-4.508893036234889 1.1058262206559075, -4.622849633017213 0.0933703742790799, -4.387491023969018 -0.7076897098805324 C-4.152132414920822 -1.5087497940401446, -3.3595217627905494 -2.347025251047285, -2.5744592054826305 -2.954483420248568 C-1.7893966481747117 -3.561941589449851, -0.2039843437539508 -4.183704497744078, 0.322884319878496 -4.3524387250882315 C0.8497529835109427 -4.521172952432385, 0.6330998192980457 -4.063800867003684, 0.5867527763120506 -3.9668887843134897" stroke="#23201D" stroke-width="1.2" fill="none" stroke-linecap="round" stroke-linejoin="round"></path></g></g></g></g><g transform="translate(15 -5)"><g transform="translate(0 0) rotate(0) scale(1 1)" opacity="1"><g><path d="M4.451614444582425 -7.553743275912763 C6.250174642954292 -7.047348903752268, 7.586392194647171 -5.614918555766257, 8.330705421057678 -4.137469358239046 C9.075018647468184 -2.6600201607118343, 9.385460227203723 -0.6337331777142381, 8.917493803045465 1.310951909250504 C8.449527378887208 3.2556369962152463, 7.0699826303104985 6.254520784273246, 5.522906876108127 7.530641163549406 C3.975831121905756 8.806761542825567, 1.6444129681371709 9.06973947379127, -0.3649607221687611 8.967674184907468 C-2.3743344124746932 8.865608896023666, -5.148359234438445 8.203742587052997, -6.533335265727465 6.91824943024659 C-7.918311297016485 5.632756273440183, -8.518995431787861 3.2654030209258496, -8.67481690990288 1.2547152440690281 C-8.8306383880179 -0.7559725327877933, -8.396269798319175 -3.6482428199427197, -7.468264134417583 -5.145877230894338 C-6.540258470515991 -6.643511641845956, -5.316640761019812 -7.2918621888478, -3.1067829264933287 -7.731091221640681 C-0.8969250919668452 -8.170320254433562, 4.2001898528101 -8.122417896732971, 5.790882872741318 -7.781251427651625 C7.3815758926725366 -7.440084958570279, 6.5961060984891 -5.937698104736464, 6.43737519309398 -5.684092407152603 M-1.7676149023889085 -9.09048576163106 C0.2950873140608068 -9.726016480835895, 3.5062257442219327 -8.420275709436167, 5.190583448345263 -7.461627587053144 C6.874941152468594 -6.502979464670121, 7.651494530486484 -4.9369671179946915, 8.338531322351074 -3.3385970273329195 C9.025568114215663 -1.7402269366711478, 9.616000949166308 0.22918072999093586, 9.312804199532803 2.1285929569174864 C9.009607449899297 4.028005183844037, 8.053570251433618 6.911198150825668, 6.51935082455004 8.057876334226384 C4.985131397666463 9.204554517627098, 2.282414823495885 9.482116835746405, 0.10748763823133989 9.008662057321779 C-2.0674395470332048 8.535207278897152, -5.120191485537635 6.403229985569224, -6.5302122870372274 5.217147663678627 C-7.94023308853682 4.031065341788031, -8.136816707340147 3.617303831307128, -8.352637170766213 1.8921681259781964 C-8.56845763419228 0.1670324206492646, -8.718500014995866 -3.370947500357228, -7.825135067593627 -5.133666568294962 C-6.931770120191388 -6.896385636232696, -4.076579384803925 -8.167402560437946, -2.992447486352778 -8.684146281648207 C-1.9083155879016303 -9.200890002858468, -1.3370028632119417 -8.245570875124507, -1.3203436768867407 -8.234128895556525" stroke="none" stroke-width="0" fill="#F7F3E9" stroke-linecap="round" stroke-linejoin="round"></path><path d="M-1.091454297315412 -9.462580773534746 C0.763267982150369 -9.701658366783276, 3.3965423119073623 -8.268859379369292, 5.071912903203811 -7.0310924329256235 C6.747283494500259 -5.793325486481955, 8.340514714667968 -3.910638656711583, 8.96076925046328 -2.035979094872735 C9.58102378625859 -0.16131953303388746, 9.635581888573952 2.5355781020578627, 8.793440117975674 4.216864938107463 C7.951298347377395 5.898151774157063, 5.8262369988216 7.4269391982491655, 3.907918626873604 8.051741921424865 C1.9896002549256078 8.676544644600565, -0.7508234174259154 8.415430913884796, -2.7164701137123037 7.96568127716166 C-4.682116809998692 7.515931640438524, -6.90821991716639 6.797543622272757, -7.885961550844726 5.353244101086049 C-8.863703184523063 3.908944579899341, -8.986407984127208 1.1722265743697062, -8.58291991578232 -0.700115849958588 C-8.179431847437431 -2.5724582742868822, -7.203238196991358 -4.545930309648857, -5.465033140775392 -5.880810444883716 C-3.7268280845594264 -7.215690580118575, 0.39736692933208895 -8.281360126395583, 1.846310421513475 -8.709396661367741 C3.295253913694861 -9.137433196339899, 3.36377275064225 -8.633707451971716, 3.228627812312922 -8.449029654716664 M-1.779927568841277 -7.547478674777145 C0.067934974107561 -8.387759485860071, 3.584373362170795 -9.285876480605033, 5.125169589713718 -8.808642728954984 C6.665965817256642 -8.331408977304935, 6.799510289148755 -6.4719850666589185, 7.4648497964162654 -4.684076164876856 C8.130189303683776 -2.896167263094794, 9.578602750288422 0.0021874155698253794, 9.11720663331878 1.9188106817373893 C8.655810516349138 3.8354339479049533, 6.25131790333329 5.481939663080376, 4.696473094598418 6.815663432128527 C3.141628285863546 8.14938720117668, 1.9013203557150584 10.21330918041837, -0.21186221909045277 9.921153296026299 C-2.325044793895964 9.628997411634227, -6.325436829343721 6.776089683013933, -7.98262235423465 5.062728125776096 C-9.639807879125579 3.349366568538259, -10.357037632887462 1.2934368545931578, -10.154975368436025 -0.3590160474007232 C-9.952913103984589 -2.011468949394604, -8.119541311246497 -3.6739010723617485, -6.770248767526035 -4.85198928618719 C-5.420956223805573 -6.030077500012632, -2.698885457502499 -6.919589734417198, -2.059220106113252 -7.427545330353374 C-1.4195547547240044 -7.93550092628955, -2.925026605255436 -7.877186078859146, -2.9322566591905503 -7.899722861804244" stroke="#23201D" stroke-width="2.7" fill="none" stroke-linecap="round" stroke-linejoin="round"></path></g></g><g transform="translate(0.00 0.00)"><g transform="translate(0 0) rotate(0) scale(1 1)" opacity="1"><g><path d="M0.010557511529962371 -4.067479551573784 C0.9268489121282748 -4.224386425366917, 1.9142008119514382 -4.029968107513948, 2.575944319731865 -3.503146846684561 C3.2376878275122922 -2.9763255858551743, 3.824710880080384 -1.8052510435132603, 3.981018558212525 -0.9065519865974606 C4.1373262363446655 -0.007852929681660847, 3.9075984217228745 1.0477140999849441, 3.5137903885247086 1.8890474948102376 C3.1199823553265427 2.730380889635531, 2.3566129381817134 3.747088983663093, 1.6181703590235297 4.1414483823543 C0.8797277798653459 4.535807781045507, -0.012271947110933046 4.581320414005046, -0.9168650864243941 4.25520388695748 C-1.8214582257378553 3.9290873599099134, -3.2191451969508216 2.9478525848177273, -3.8093884768572375 2.1847492200689027 C-4.399631756763653 1.4216458553200781, -4.586720082612941 0.5516373252481891, -4.458324765862889 -0.32341630153546785 C-4.329929449112837 -1.198469928319125, -3.8111033466406434 -2.4008917527635854, -3.0390165763569246 -3.0655725406330396 C-2.2669298060732057 -3.730253328502494, -0.2740293362072115 -4.088513732196891, 0.17419585583942362 -4.311501028752194 C0.6224210478860588 -4.534488325307497, -0.2769812470576007 -4.4342483819326, -0.34966542407711365 -4.403496319964859" stroke="none" stroke-width="0" fill="#23201D" stroke-linecap="round" stroke-linejoin="round"></path><path d="M0.04013049988271464 -4.4614875387321735 C0.8672038875343258 -4.500225213505574, 1.933950630815957 -3.8346854781778204, 2.680744570429169 -3.173567873150975 C3.427538510042381 -2.5124502681241294, 4.414404976831358 -1.4470503895346694, 4.520894137561986 -0.49478190857110155 C4.627383298292614 0.4574865723924662, 3.813793862684003 1.7193635878580253, 3.3196795348129378 2.540043012630431 C2.8255652069418726 3.360722437402837, 2.3688183104613314 4.217968775264799, 1.5562081703355952 4.429294640063334 C0.7435980302098592 4.64062050486187, -0.617760712633464 4.169770281021931, -1.5559813059414782 3.8079982014216416 C-2.4942018992494925 3.4462261218213524, -3.6317076048063455 3.0024368150332155, -4.07311538951249 2.2586621624615977 C-4.514523174218635 1.5148875098899799, -4.4375318976811045 0.2740481342751785, -4.204428014178347 -0.654649714008066 C-3.9713241306755904 -1.5833475622913107, -3.4867534910765032 -2.7362452817213736, -2.6744920884959478 -3.313524927237869 C-1.8622306859153923 -3.890804572754364, 0.19648615133182895 -3.9685839888413894, 0.6691404013049858 -4.118327587107038 C1.1417946512781425 -4.268071185372687, 0.27554317683381013 -4.294407159286247, 0.16143341134299327 -4.211986516831762" stroke="#23201D" stroke-width="1.2" fill="none" stroke-linecap="round" stroke-linejoin="round"></path></g></g></g></g><g transform="translate(-16 -22) rotate(0)"><path d="M -10.50 -0.01 Q -10.50 -0.01 -8.07 -1.19 Q -5.65 -2.38 -4.35 -2.20 Q -3.05 -2.03 -1.06 -1.81 Q 0.93 -1.59 2.85 -1.49 Q 4.77 -1.39 7.64 -0.70 Q 10.50 -0.01 10.50 -0.00 Q 10.50 0.00 10.50 0.00 Q 10.50 0.01 7.99 2.00 Q 5.48 4.00 3.16 4.50 Q 0.84 5.01 -0.40 5.09 Q -1.63 5.16 -2.94 5.05 Q -4.26 4.94 -5.76 4.63 Q -7.25 4.32 -8.88 2.17 Z" fill="#23201D"></path></g><g transform="translate(15 -21) rotate(0)"><path d="M -10.50 -0.01 Q -10.50 -0.01 -8.09 -1.13 Q -5.67 -2.26 -4.38 -2.05 Q -3.08 -1.84 -1.07 -1.62 Q 0.93 -1.40 2.86 -1.36 Q 4.78 -1.32 7.64 -0.66 Q 10.50 -0.01 10.50 -0.00 Q 10.50 0.00 10.50 0.00 Q 10.50 0.01 7.99 1.97 Q 5.47 3.93 3.16 4.38 Q 0.84 4.82 -0.38 4.88 Q -1.61 4.93 -2.92 4.85 Q -4.23 4.76 -5.73 4.48 Q -7.22 4.20 -8.86 2.11 Z" fill="#23201D"></path></g><g transform="translate(0 19) scale(1.3)"><path d="M -9.00 -0.01 Q -9.00 -0.01 -5.93 -1.33 Q -2.85 -2.66 3.07 -1.33 Q 9.00 -0.01 9.00 -0.00 Q 9.00 0.00 9.00 0.00 Q 9.00 0.01 2.71 1.98 Q -3.57 3.94 -6.29 1.98 Z" fill="#23201D"></path></g></g></g></g></g></svg>
