<?xml version="1.0" encoding="UTF-8"?>
<svg xmlns="http://www.w3.org/2000/svg" width="200" height="200" viewBox="-100 -100 200 200"><g transform="translate(0 0) rotate(0) scale(1 1)" opacity="1"><path d="M 50.5 -6.4 Q 58.1 -7.2 65.6 -8.3" stroke="#23201D" stroke-width="4.4" stroke-linecap="round" stroke-linejoin="round" fill="none"></path><path d="M 41.0 25.8 Q 49.8 28.8 56.2 35.4" stroke="#23201D" stroke-width="2.8" stroke-linecap="round" stroke-linejoin="round" fill="none"></path><path d="M 13.0 45.2 Q 16.4 55.0 18.7 65.0" stroke="#23201D" stroke-width="2.8" stroke-linecap="round" stroke-linejoin="round" fill="none"></path><path d="M -23.4 43.7 Q -30.5 52.8 -34.0 63.7" stroke="#23201D" stroke-width="4.4" stroke-linecap="round" stroke-linejoin="round" fill="none"></path><path d="M -43.2 21.7 Q -56.7 29.7 -71.2 35.8" stroke="#23201D" stroke-width="2.8" stroke-linecap="round" stroke-linejoin="round" fill="none"></path><path d="M -45.7 -14.7 Q -60.4 -20.7 -75.9 -24.5" stroke="#23201D" stroke-width="2.8" stroke-linecap="round" stroke-linejoin="round" fill="none"></path><path d="M -27.8 -41.5 Q -38.2 -53.7 -45.5 -67.9" stroke="#23201D" stroke-width="4.4" stroke-linecap="round" stroke-linejoin="round" fill="none"></path><path d="M 7.8 -45.5 Q 7.9 -55.9 11.2 -65.9" stroke="#23201D" stroke-width="2.8" stroke-linecap="round" stroke-linejoin="round" fill="none"></path><path d="M 36.2 -28.4 Q 46.3 -34.4 54.6 -42.8" stroke="#23201D" stroke-width="2.8" stroke-linecap="round" stroke-linejoin="round" fill="none"></path></g></svg>
