<?xml version="1.0" encoding="UTF-8"?>
<svg xmlns="http://www.w3.org/2000/svg" width="200" height="200" viewBox="-100 -100 200 200"><g transform="translate(0 0) rotate(0) scale(1 1)" opacity="1"><path d="M -5.09 -72.82 C 14.92 -72.54 49.05 -54.46 61.01 -36.66 C 72.97 -18.86 77.05 15.88 66.67 33.97 C 56.29 52.06 20.66 71.57 -1.25 71.89 C -23.17 72.22 -55.17 54.30 -64.80 35.92 C -74.44 17.55 -69.03 -20.24 -59.08 -38.37 C -49.13 -56.49 -25.11 -73.11 -5.09 -72.82 Z" fill="#F7F3E9" transform="translate(3 2.6)"></path><path d="M -5.09 -72.82 C 14.92 -72.54 49.05 -54.46 61.01 -36.66 C 72.97 -18.86 77.05 15.88 66.67 33.97 C 56.29 52.06 20.66 71.57 -1.25 71.89 C -23.17 72.22 -55.17 54.30 -64.80 35.92 C -74.44 17.55 -69.03 -20.24 -59.08 -38.37 C -49.13 -56.49 -25.11 -73.11 -5.09 -72.82 Z" fill="none" stroke="#23201D" stroke-width="6.2" stroke-linejoin="round"></path><path d="M -4.50 -64.34 C 13.19 -64.09 43.34 -48.12 53.91 -32.39 C 64.47 -16.66 68.08 14.03 58.91 30.01 C 49.74 46.00 18.25 63.24 -1.11 63.52 C -20.47 63.81 -48.74 47.98 -57.26 31.74 C -65.77 15.50 -60.99 -17.89 -52.20 -33.90 C -43.41 -49.91 -22.18 -64.59 -4.50 -64.34 Z" fill="none" stroke="#23201D" stroke-width="2.4" stroke-linejoin="round" opacity="0.55"></path><path d="M 1.53 -54.17 L 1.76 -62.25 M 24.80 -47.68 L 28.36 -54.53 M 47.66 -24.03 L 55.89 -28.18 M 54.36 -1.20 L 61.70 -1.36 M 45.65 28.70 L 52.81 33.20 M 29.35 44.48 L 33.76 51.16 M -0.86 54.54 L -0.98 62.13 M -29.08 44.98 L -33.94 52.50 M -45.81 28.60 L -52.23 32.61 M -54.26 -1.36 L -62.22 -1.56 M -47.67 -24.42 L -54.65 -27.99 M -24.99 -47.68 L -28.97 -55.28" stroke="#23201D" stroke-width="4.4" stroke-linecap="round" stroke-linejoin="round" fill="none"></path><path d="M -7 -79 C 0 -88 6 -87 9 -80" stroke="#23201D" stroke-width="4.4" stroke-linecap="round" stroke-linejoin="round" fill="none"></path><g transform="rotate(0)"><path d="M -0.63 3.2 Q 2.10 -14.04 0.73 -31.20" stroke="#23201D" stroke-width="6.2" stroke-linecap="round" stroke-linejoin="round" fill="none"></path></g><g transform="rotate(0)"><path d="M 0.51 3.2 Q -1.70 -23.40 -0.59 -52.00" stroke="#23201D" stroke-width="4.4639999999999995" stroke-linecap="round" stroke-linejoin="round" fill="none"></path></g><circle cx="0.5" cy="-0.4" r="5.6" fill="#23201D"></circle></g></svg>
