<?xml version="1.0" encoding="UTF-8"?>
<svg xmlns="http://www.w3.org/2000/svg" width="240" height="240" viewBox="-120 -120 240 240"><g transform="translate(-0.06 0.91) rotate(-0.170) scale(1 1)" opacity="1"><g transform="translate(0 0) rotate(0) scale(1 1)" opacity="1"><g><path d="M-43.5036558217369 -153.37017106199636 C-17.27397102927789 -156.2176387394108, 2.2087953709997232 -154.86667607373371, 43.62090507382527 -157.69118138039485 C50.911890133384986 -152.99728036010637, 51.87973730498925 -150.8279678619545, 48.18358696037903 -145.47383554363623 C54.26999217698947 -95.52898764060811, 50.93636545668021 -49.47001359788701, 53.24546167170629 -12.919645065721125 C54.0029231778346 -1.467865748043735, 46.633984192189196 0.8050321781076484, 42.613032575603576 -0.5045430398546165 C19.45260619902983 2.9689967119060463, 0.317148142401122 3.6477768176160756, -40.07155262893066 5.283048888202757 C-49.79991095709465 2.744099070783705, -55.79375419979915 -3.281561506811159, -48.147117564734074 -11.111967278365046 C-47.072666440736505 -46.74585490608588, -47.5227872444503 -88.31814372045919, -55.024724105838686 -148.2573129392229 C-49.248892734292895 -153.12859405028485, -45.54490931100062 -155.87144232457504, -39.15288922870532 -158.11595883434637 C-40 -156, -40 -156, -40 -156" stroke="none" stroke-width="0" fill="#C9C2B4" stroke-linecap="round" stroke-linejoin="round"></path><path d="M-37.833297099824996 -154.28430565232412 C-16.414636019524185 -154.2084469432868, 7.8433050938882 -157.33468941104783, 39.18612916553393 -157.3590505116619 M-40.50431646970101 -156.6603089373093 C-10.723819324048236 -156.64693963706307, 19.957041314570233 -158.06281556218676, 40.212472601560876 -157.03505005496555 M40 -156 C45.2476381336417 -155.70555996811018, 52.11477935379371 -150.51323002177142, 53.1975935167633 -141.96335231876 M38.5195280588232 -156.26107254540548 C44.399785864477415 -153.6224447973864, 51.95718536034692 -149.40288769175615, 53.57223484203685 -143.06194003917741 M52.94916921043769 -145.65304296249525 C52.36753692581281 -93.15206315768883, 51.62490059985742 -44.87270438941195, 50.2088304230012 -12.146651309076697 M53.11047058734111 -143.5742784570437 C50.17299420055114 -106.66296949624085, 49.036386686229335 -66.95598292122595, 51.48550064447336 -10.798390626488253 M52 -10 C51.26359129315242 -2.357271241481979, 46.34141043471954 3.977185360435396, 41.37213757103309 0.05269133830443007 M53.11453357702121 -10.5497036091052 C52.35917848468293 -3.7879488725556105, 48.59148087946083 1.2576234670681876, 40.985647615347986 -0.8239595372276378 M40.87163529181853 -0.09282862776890433 C9.435482626501468 5.3467836602889, -22.94343346273527 1.719533730980009, -42.65711845075712 1.0352635032497346 M40.85016437503509 2.984547318937257 C13.299735033838079 1.9697898731250318, -12.833039554627613 0.9183733672518284, -41.09139978704043 1.4408797715324908 M-40 2 C-44.1876708946269 2.384154451731593, -52.08046046430245 -4.67965534561463, -52.18509671026841 -7.803301366325467 M-40.089097150508316 -0.408552186843008 C-49.65466648590136 1.1499680421454836, -54.42263759538066 -6.001949621696586, -53.40600276365411 -10.069404347320088 M-54.24443889474496 -11.109888234082609 C-53.761527660811694 -39.534812959190454, -50.87617288264111 -73.58310432629659, -51.97541374480352 -145.19687541062012 M-52.34030102458782 -9.870757878897711 C-51.0398329111848 -51.113974973326556, -49.99506549417116 -93.77284868205899, -51.82446648594923 -143.42174325543456 M-52 -144 C-52.74035251969472 -150.98389518159294, -44.385818683270735 -157.00775117492304, -39.137366163078696 -155.2020579717122 M-53.95696470970288 -146.4435020676814 C-50.06040260016452 -152.49132953976599, -49.069722054566626 -157.8673869989114, -37.80155540629756 -157.57101738937664 M-40 -156 C-40 -156, -40 -156, -40 -156 M-40 -156 C-40 -156, -40 -156, -40 -156" stroke="#23201D" stroke-width="4.2" fill="none" stroke-linecap="round" stroke-linejoin="round"></path></g><g><path d="M-32.17056929301471 -127.7503431128338 C-12.933335408382117 -126.63495140077919, 12.919775437004867 -125.62893986108153, 34.74467979837209 -123.36145278085023 C41.68263764838148 -123.42102947104722, 43.48640307951719 -125.35065712491442, 41.112815578468144 -123.27921176422387 C41.91423783206418 -107.96691956017166, 41.42257938885167 -90.13387862797826, 39.491141642443836 -76.30177759360522 C45.11029725205153 -67.9276377215011, 40.6902994257437 -66.77937441896647, 37.893779082410035 -69.389912985079 C18.042914921231567 -70.36742888669224, -8.051760352961722 -67.93473449329585, -38.67329215239734 -67.2854883717373 C-37.13425665619243 -70.08009657133371, -40.94159484934062 -70.41126402197014, -43.40919213127345 -73.31336870063096 C-44.29739474977031 -90.05492864418775, -45.80177463615909 -104.07299593593925, -39.18888912666589 -121.46703328918666 C-44.77888612020761 -126.32561704041828, -42.95091203609872 -127.25194002818316, -34.96390232909471 -126.12932773064821 C-36 -126, -36 -126, -36 -126" stroke="none" stroke-width="0" fill="#F7F3E9" stroke-linecap="round" stroke-linejoin="round"></path><path d="M-37.01960777770728 -128.0870377080515 C-10.38610481005162 -126.11243956913799, 11.15528866816312 -125.3422137998566, 36.701196561940016 -125.34075859356672 M-34.90912693524733 -126.9662913239561 C-15.995500608626752 -127.3719548031263, 2.771008770819756 -126.36784444596097, 36.576063346024604 -125.84622404640541 M36 -126 C40.8062365663277 -125.37766128908842, 40.31191441249102 -124.49310314478744, 43.638111929409206 -120.69905548822135 M35.04105245899409 -125.55675189625472 C37.573092154631574 -126.22155827254988, 43.540625744620336 -122.58838993064519, 43.64359827176668 -121.28782355071046 M43.701528494246304 -118.51805423665792 C42.99176759467646 -102.32347248699516, 43.38780187712237 -84.57416833285242, 42.2011975036934 -72.59529921580106 M41.61093513583764 -121.05005798107013 C41.72727368277162 -109.70618213741109, 42.60538440447896 -102.20042646816, 41.20847836052999 -73.94105885690078 M42 -74 C43.261910556070504 -70.20183942159247, 37.90003431560863 -66.46650574933737, 36.09583708476275 -69.4480814171955 M42.10097373556346 -75.89681061636657 C39.6652032570634 -70.20986979345399, 41.0359541875815 -65.82836574674585, 38.36294797495939 -69.11830073536373 M35.04830639827996 -67.00184862781316 C14.901869973726567 -68.57738253781051, -10.008184729330248 -66.14123956271857, -36.42460035216063 -66.28359914589673 M37.129962279554455 -68.09080362683162 C9.428335899766534 -67.48491288692877, -17.96023897016421 -67.26954116196558, -35.37211664998904 -68.84281162088737 M-36 -68 C-38.74705855111051 -66.84036616217345, -42.71501427460462 -71.34034094055723, -43.91950370837003 -72.56350672971458 M-37.820496131666005 -66.76877164971083 C-39.22538945977967 -68.49165853113867, -43.908956594904886 -71.4200841547044, -41.28274867041968 -74.61106982828117 M-39.7386978937313 -72.08602830339223 C-43.83915698012337 -88.98714609574526, -43.48651793083176 -106.77336081955583, -42.68093333374709 -117.73295330572873 M-42.017255465034395 -74.33855267530308 C-42.82460910925269 -85.46794726653025, -42.38005589792132 -96.46184142669664, -42.34577539646998 -119.82416300242767 M-42 -120 C-44.25648617912084 -122.75806084098686, -40.24560928205419 -126.38269954454154, -34.34458037186414 -123.83913025390356 M-41.68971456456929 -119.81174632441252 C-39.541173783084375 -125.04339176497814, -40.78464126502555 -127.01554955483414, -33.47784957452677 -128.62681198180653 M-36 -126 C-36 -126, -36 -126, -36 -126 M-36 -126 C-36 -126, -36 -126, -36 -126" stroke="#23201D" stroke-width="3.2" fill="none" stroke-linecap="round" stroke-linejoin="round"></path></g><g><path d="M-35.27365157105029 -117.71498616836965 C-26.216011009290813 -120.52017388277649, -23.710088968649504 -119.18909221821427, -20.589703609719873 -121.66294478796422 C-17.223251564565953 -116.98775040982291, -18.300032561738043 -115.12864190661544, -15.809824776370078 -114.45178016005084 C-11.333794034410268 -110.35614479677751, -11.621042875338345 -98.4751985562034, -14.393468968849628 -80.34059534044937 C-15.770780276041478 -75.67785054868823, -19.078458726730105 -71.8926752355881, -14.677678831201046 -70.23486090572551 C-23.393101818040012 -74.23065133997203, -31.412636400833726 -76.64543172069789, -36.11848432518542 -74.2368610253185 C-33.04789266106869 -75.61516519961879, -33.83935079844669 -75.64553757044291, -39.29819143684581 -73.59884798405692 C-40.28025972739235 -88.09664174066856, -38.49624725774303 -92.99939612271264, -35.25228501139209 -117.84978490741923 C-39.55665682731196 -119.43856542525077, -33.23701928281421 -117.1463234779425, -33.767266033869234 -117.69872090192511 C-34 -120, -34 -120, -34 -120" stroke="none" stroke-width="0" fill="#EDE6D6" stroke-linecap="round" stroke-linejoin="round"></path><path d="M-35.2989238486439 -120.51309788964689 C-31.135504773929718 -119.84039987450242, -24.05996022619307 -120.104190150553, -17.105828205123544 -120.15328951857984 M-33.09644390832633 -119.80389882016927 C-29.09416697125882 -120.06962923859209, -23.01575977753848 -120.8908854791984, -18.487312923781573 -120.52214386034757 M-18 -120 C-18.254303427364587 -120.49221956254914, -15.930503809731453 -120.60625379649187, -15.215707093756645 -114.9971227270551 M-19.865533212106676 -121.55368160130456 C-18.554748180725518 -118.77090904822107, -12.900666679465212 -116.97813871473736, -14.26926305832807 -117.31708855425474 M-15.977402339596301 -114.98833465306089 C-15.51483210880682 -102.0722004125826, -13.604749062251301 -89.25409807441756, -15.379828370828182 -76.09528824714944 M-15.984000992914662 -116.11192898363807 C-13.876201926020904 -106.55861366377212, -13.93708701714687 -95.98454853654839, -14.731788407405839 -76.85821388722397 M-15 -77 C-14.805754474084825 -73.71736429906254, -14.24670304539418 -72.01418146910146, -19.285100376885385 -76.08029263438657 M-16.95369499651715 -79.2111768794246 C-14.702505942159332 -77.35747972363876, -14.768362763889973 -74.95045297955629, -20.20701871069614 -73.69018401329872 M-18.37528030730784 -72.51571405671537 C-24.94996446438134 -74.91893425565958, -29.510286820307375 -75.19247398239375, -35.0729704914242 -75.0385915376991 M-18.06982581388205 -73.68186190057546 C-21.541788527183236 -73.88335420239419, -26.296317272894083 -74.53751159656495, -33.55591959130019 -73.79459165144712 M-34 -74 C-35.15524743669862 -75.33753963233903, -35.77559263734147 -77.37534286058312, -38.23401750950143 -78.8592011434026 M-35.18670045463368 -73.41764562251046 C-38.27979657483949 -75.18898683001753, -39.373271776163016 -75.30505291560935, -36.73762083294336 -75.95522700881119 M-38.05839249910787 -79.0643244358711 C-38.369550046171994 -87.98406459642574, -36.30114371165261 -95.70443675694987, -35.57530179144815 -115.39277499346062 M-37.83514724387787 -75.99260922879913 C-38.00773600615374 -87.70448717013933, -36.22688125200383 -96.40515509904363, -35.85986356004141 -115.87390675903298 M-37 -117 C-38.979039636533706 -120.67914936808134, -37.26452365690107 -121.80996502460911, -35.106330561917275 -122.28255430879071 M-38.021702906768766 -119.02101263524965 C-36.96090352314059 -119.96081976876324, -33.66643497315897 -117.45111210977193, -33.4260535559291 -118.76119825368282 M-34 -120 C-34 -120, -34 -120, -34 -120 M-34 -120 C-34 -120, -34 -120, -34 -120" stroke="#23201D" stroke-width="2.6" fill="none" stroke-linecap="round" stroke-linejoin="round"></path></g><g><path d="M-9.907919525504113 -121.02341560900211 C-3.468864700198173 -122.28991015791894, 0.36661163389682816 -121.13425263762474, 8.018778873085976 -118.32501726686955 C7.259760089919063 -117.13217676356435, 9.295445985347033 -116.98369556288431, 12.764388675242662 -116.39425736144184 C12.83400765827298 -98.69065319225192, 7.278622283250093 -82.75659219548106, 7.9680679015815254 -79.99432275816798 C11.52291223332286 -74.64673102278998, 8.292175907597038 -77.38824163004756, 10.846140473335982 -77.15321159884334 C1.613348391652107 -77.13154405965804, 3.785717554688453 -71.85267914190291, -5.965200790762902 -76.04737091600894 C-9.791062576279137 -70.57014232352375, -11.14009881541133 -75.45306447078278, -10.401858334988356 -79.70368822291493 C-8.122544226974249 -83.93650963231921, -7.434662542670965 -93.86480724141002, -11.497819716483354 -115.45553436800837 C-11.030733258277177 -120.18196454714248, -11.856032117411587 -118.51486232802272, -7.499478132277727 -123.70892317816615 C-8 -120, -8 -120, -8 -120" stroke="none" stroke-width="0" fill="#EDE6D6" stroke-linecap="round" stroke-linejoin="round"></path><path d="M-7.911177973151207 -119.67194198191166 C-2.734694940447807 -121.3403793328762, 3.025309210419656 -118.85751264510154, 6.329766946434974 -118.69972863733769 M-7.720063121616841 -120.12694356650114 C-4.285118513405323 -119.55699853044747, 0.49468174666166304 -120.45007326227426, 7.8287416097521785 -119.69375565260648 M8 -120 C10.413591820702049 -120.12070013806223, 12.883635597676038 -117.28291882942627, 11.40223258063197 -117.43110031411052 M6.43666201159358 -120.88803836628794 C7.6022471812293855 -121.01779212299735, 9.386430795229971 -117.2959377035425, 12.035024051703513 -119.40400021973997 M10.9155746050179 -116.69824118092656 C9.060476836889983 -101.95502108410001, 11.999210295408965 -86.75891478732228, 12.347180254012347 -77.46195857003332 M10.98097771666944 -117.52463864944875 C10.93637351231277 -102.44214118979872, 10.421820358797909 -87.95851725004613, 10.914967181906103 -76.11916221044957 M11 -77 C13.083467202633619 -74.09780742306998, 10.583257991775962 -72.16495622918009, 10.241878776997329 -75.86955556198954 M12.797861247509719 -76.03972145840525 C8.65673045758158 -76.52722783007464, 11.280791470103058 -72.1464239019528, 7.316303517855704 -72.40288958732039 M6.269361501336098 -73.97096900522709 C3.1333996707200997 -73.68829846487046, -1.156619166731836 -73.22102015600206, -7.601873754858971 -73.00802079737187 M8.25477273195982 -74.42545556753873 C4.402916674315929 -74.21408501292467, -1.4471696689724929 -73.97942414904833, -8.149844167530537 -74.08781086653471 M-8 -74 C-10.666899725005123 -74.50514847561718, -10.422066516429187 -76.91596030373861, -9.395846242457628 -79.29396967217326 M-6.331299013644457 -74.73468763157726 C-9.612709453322084 -74.95654406372458, -13.218500049076974 -73.79901474513849, -8.822663445435465 -76.5071746153012 M-12.485160963982343 -76.20489239171147 C-12.518828128486872 -88.24773974493147, -12.555677555710076 -104.38604074195027, -10.277178972214461 -116.70616776421666 M-11.562516650930046 -76.44125704430044 C-12.3125885091573 -91.27975828908384, -10.977167602613568 -106.3656193818897, -10.355167505517603 -116.19065884016455 M-11 -117 C-10.004855150729417 -119.81983510921906, -9.505934115454647 -121.3342098645866, -8.185747165232897 -120.80141295716166 M-10.044373459368945 -116.75125719830393 C-10.15432694312185 -120.10272568433741, -7.056885653950366 -122.16592459145933, -6.776652228794992 -120.04973616305739 M-8 -120 C-8 -120, -8 -120, -8 -120 M-8 -120 C-8 -120, -8 -120, -8 -120" stroke="#23201D" stroke-width="2.6" fill="none" stroke-linecap="round" stroke-linejoin="round"></path></g><g><path d="M17.994884337857364 -117.33812728710473 C19.649696372523906 -122.47190133249164, 25.576509826257826 -120.78997137939335, 32.43333142466843 -122.09879983015358 C37.810725126464014 -116.69889770234003, 38.3090103440918 -119.21853459407771, 38.84174832040444 -118.36682575726881 C34.65860258022323 -102.0871280058287, 37.10762680748478 -90.11241127764806, 37.08345729028806 -73.23314050501213 C33.64183470522985 -77.74008960048472, 37.980272004615614 -76.50154244666919, 30.474682559724897 -71.99815951948986 C30.753997762575747 -73.92006590059997, 27.470655688121916 -73.0021368782878, 20.05494860596955 -76.85584124393762 C16.63844716935223 -70.10521095180884, 16.962145235482602 -76.03048376976317, 14.709142359439284 -76.98916750634089 C16.87630927177146 -88.81690595736727, 13.052583312112837 -107.26857388531789, 13.43878439879045 -114.83828598624095 C15.191496034618467 -117.95176718146736, 20.201006386380552 -122.20924577778206, 17.697158162947744 -121.27831634944305 C18 -120, 18 -120, 18 -120" stroke="none" stroke-width="0" fill="#EDE6D6" stroke-linecap="round" stroke-linejoin="round"></path><path d="M17.605584400370716 -118.51540970511735 C19.74287555910647 -120.07884095775485, 25.76950090058148 -118.47594516145587, 32.66298149175942 -119.38041128106416 M18.310794518254696 -119.15780932750553 C23.927736113034186 -120.65329065488129, 29.403357174061238 -119.49090991304665, 34.72057800915092 -120.33892027582974 M34 -120 C37.60990607650215 -121.23525841152295, 35.04121737545356 -118.05292373062308, 35.54841355746612 -114.72916755294428 M36.13007634049281 -118.28496807133779 C33.13126109536467 -119.56714289866854, 35.945138371144424 -116.34254073712705, 37.12216272160877 -118.43326522328425 M38.8366437711753 -116.16852159732953 C38.23054999979958 -106.9065590695478, 38.083332222428176 -94.24446464860812, 37.766154379490764 -77.9619476013817 M36.386041587917134 -117.88650965201668 C38.29064719731174 -109.09155861171894, 36.837098230963576 -98.3366111095529, 37.974700413970275 -76.03631724077277 M37 -77 C38.01580217247829 -77.55647805104768, 35.49337488026554 -71.71263194894418, 34.860941315349194 -71.90176677918062 M36.74319251542911 -76.35408772146329 C37.289021258358844 -73.72798351076702, 37.13332876812397 -75.26851113476324, 34.03633683220018 -76.26477286525537 M32.65543607540429 -73.28520415969193 C29.76330726541579 -73.70020583723783, 24.182377872541547 -75.45538163517713, 17.664836035445333 -75.41973301835358 M33.2809770944342 -74.0346745666489 C29.20880106981844 -74.10509258133322, 23.44538751926273 -74.69688649159819, 17.791929561160504 -73.20815322127193 M18 -74 C15.26805713991439 -72.40232194578275, 12.917355120833964 -73.69410797427213, 17.289639956410973 -77.98966408586129 M15.702496663387866 -75.38356160437688 C18.966029182125723 -75.65387236260344, 17.60718476966489 -73.02712925655106, 16.722464392040855 -74.85133179583121 M14.795144430641084 -75.58318852419033 C12.825006118457765 -86.25671429941431, 14.503923976462334 -94.34122878694907, 13.228452570084482 -117.36598945194855 M15.919591570226476 -77.39531359779649 C15.797968999853358 -91.95394493225031, 13.869691449215637 -108.48422653335146, 14.830744330910965 -117.54040259676985 M15 -117 C16.272591391857713 -117.79777788580591, 15.818297260206101 -118.16147534465418, 19.65250264471397 -120.64483701204881 M14.623638198431582 -118.96052350914105 C13.42594331682194 -119.6770079376149, 17.114466388423835 -118.60148714639712, 17.275143789802677 -121.47412243493368 M18 -120 C18 -120, 18 -120, 18 -120 M18 -120 C18 -120, 18 -120, 18 -120" stroke="#23201D" stroke-width="2.6" fill="none" stroke-linecap="round" stroke-linejoin="round"></path></g><g><path d="M-4.6897885610018175 -58.281353079444614 C-2.810296869401121 -59.45242250309839, -0.2994115491098279 -58.648545743550194, 2.023784791580445 -58.175093824923565 C4.346981132270718 -57.701641906296935, 7.303316089460963 -57.657309478111756, 9.249389483139822 -55.44064156768485 C11.19546287681868 -53.22397365725794, 13.556265774587596 -47.69822188409945, 13.700225153653601 -44.87508636236215 C13.844184532719607 -42.05195084062484, 12.082973768322473 -40.667466913261265, 10.113145757535857 -38.50182843726101 C8.143317746749242 -36.33618996126076, 4.531637776288147 -32.4220785276823, 1.8812570889339075 -31.881255506360617 C-0.7691235984203315 -31.340432485038928, -3.6460375660451994 -33.770422913361834, -5.789138366589578 -35.256890309330885 C-7.932239167133956 -36.743357705299935, -9.902914617187227 -38.24358997416512, -10.977347714332362 -40.800059882174914 C-12.051780811477498 -43.35652979018471, -13.30198463539083 -47.81682857581742, -12.235736949460387 -50.59570975738965 C-11.169489263529943 -53.37459093896188, -6.017813308412114 -56.13876410218318, -4.579861598749702 -57.47334697160831 C-3.141909889087289 -58.807929841033435, -3.6115559595639364 -58.63074159706752, -3.608026691485911 -58.6032069739404 M-5.2891763378964205 -56.58314492657625 C-3.3505119899642564 -57.98198670004008, -2.670372725274353 -58.09074707526577, -0.18607401429101844 -58.032491562545914 C2.2982246966923165 -57.97423604982606, 7.216453572282905 -57.816052445411486, 9.616615928003588 -56.23361185025714 C12.016778283724271 -54.651171255102795, 13.89132395904195 -51.8892230993819, 14.214900120033079 -48.537847991619834 C14.538476281024208 -45.18647288385777, 13.38835769637546 -38.97907371892068, 11.55807289395036 -36.12536120368475 C9.72778809152526 -33.27164868844881, 6.322054300102565 -31.93424384729778, 3.233191305482483 -31.415572900204225 C0.14432831086240183 -30.89690195311067, -4.521224310931823 -31.253174661194052, -6.975105073770128 -33.013335521123416 C-9.428985836608433 -34.77349638105278, -10.347715848148509 -38.969345161083254, -11.490093271547348 -41.97653805978041 C-12.632470694946187 -44.983730958477565, -14.668334696519684 -48.820331490017395, -13.82936961416316 -51.05649291330635 C-12.990404531806634 -53.292654336595305, -7.3809670324033245 -54.324551482748184, -6.4563027774082 -55.39350659951412 C-5.5316385224130755 -56.46246171628005, -8.300058088445113 -57.093951868028476, -8.281384084192414 -57.470223613901965" stroke="none" stroke-width="0" fill="#E8503A" stroke-linecap="round" stroke-linejoin="round"></path><path d="M-5.029142708718107 -58.40308804474435 C-2.9440077432382656 -59.82270537909579, -0.023324288102526403 -60.983689929397485, 2.32843190326116 -60.148403757568055 C4.680188094624846 -59.313117585738624, 7.280122769648041 -55.732035789224604, 9.08139443946401 -53.39137101376775 C10.882666109279977 -51.0507062383109, 12.96863083703785 -48.978421251707594, 13.136061922156973 -46.104415104826934 C13.303493007276096 -43.230408957946274, 12.084757234355433 -38.56847362843687, 10.085980950178747 -36.147334132483785 C8.087204666002062 -33.7261946365307, 3.758545082068993 -31.619324270739103, 1.1434042170968635 -31.57757812910841 C-1.4717366478752663 -31.535831987477717, -3.564823703013744 -34.11030110263623, -5.604864239654032 -35.89685728269963 C-7.64490477629432 -37.68341346276303, -10.083888612374002 -39.80529577356261, -11.096839002744863 -42.29691520948879 C-12.109789393115724 -44.78853464541496, -12.967765243845275 -48.16665303241346, -11.6825665818792 -50.84657389825668 C-10.397367919913126 -53.5264947640999, -5.328746053377592 -56.81112656207901, -3.3856470309484195 -58.376440404548106 C-1.4425480085192472 -59.9417542470172, 0.06066138187457393 -60.40569882420326, -0.023972447304168365 -60.238456953071264 M5.8364753576362975 -56.38098172655413 C8.5573130857885 -55.364120562850026, 10.788985173590731 -54.90002881137621, 11.77636299175145 -52.84074653949007 C12.763740809912168 -50.78146426760393, 12.687789256360816 -47.020507842860766, 11.760742266600605 -44.0252880952373 C10.833695276840395 -41.030068347613835, 8.092569801215179 -36.89294361475716, 6.214081053190185 -34.86942805374926 C4.335592305165191 -32.84591249274136, 3.0686438888985794 -31.25583110045507, 0.4898097784506439 -31.884194729189907 C-2.089024331997292 -32.512558357924746, -7.43990032843287 -36.57529740973331, -9.25892360949743 -38.63960982615829 C-11.07794689056199 -40.703922242583275, -10.482755505723077 -41.73856455144479, -10.424329907936716 -44.27006922773979 C-10.365904310150356 -46.80157390403479, -10.24224263878789 -51.40108159690332, -8.908370022779263 -53.82863788392831 C-7.574497406770635 -56.2561941709533, -5.071457055744485 -58.38629257975226, -2.421094211884953 -58.835406949889745 C0.22926863197457914 -59.28452132002723, 6.002505748239936 -56.60406260910352, 6.993807040377932 -56.52332410475324 C7.985108332515929 -56.442585600402964, 3.6944661261164438 -58.14315318739862, 3.5267135409430246 -58.35097592378807" stroke="#23201D" stroke-width="4.2" fill="none" stroke-linecap="round" stroke-linejoin="round"></path></g><g><path d="M-20.42072469154373 -22.20158550729975 C-6.771812236029652 -23.623645157507063, 10.146751918550585 -28.882672355464102, 21.32045807382092 -29.16831859042868 C21.59698656732477 -22.410044994857163, 24.11805324992165 -21.060712031370773, 22.693321417178957 -19.481871354486792 C25.76236757724732 -17.95474023059942, 24.455016224972905 -15.5661812458653, 25.780191774712875 -10.462842834787443 C27.854449686501177 -6.450043902450429, 23.791287485792115 -7.310409657750279, 19.42704395065084 -7.7614581332542 C15.386118918191642 -8.891067531706394, 4.161929199751466 -11.377769500018657, -22.014523078594358 -7.043526828195899 C-26.22749775005765 -6.395256703998894, -25.23635873058811 -10.863145219252633, -24.283523844275624 -15.379487028624862 C-26.326826081354174 -15.022819669777528, -27.14255827583745 -19.97734498945065, -24.535073095513507 -23.313393532531336 C-23.060351103451104 -22.017253687514735, -26.713252694255484 -25.47216807762161, -22.838417640235274 -23.05791179696098 C-22 -26, -22 -26, -22 -26" stroke="none" stroke-width="0" fill="#9A9384" stroke-linecap="round" stroke-linejoin="round"></path><path d="M-21.362384188268333 -26.247151900734753 C-3.928265855927018 -26.12237351553738, 10.389031091984368 -26.38539617972672, 22.13973898580298 -24.259416304435582 M-22.35245881895535 -26.439649793552235 C-7.6662707354407775 -25.803347655449436, 6.371453192876649 -26.470825500104947, 22.110586177604272 -26.19462086413987 M22 -26 C25.426400330199673 -27.978297260496767, 27.612938560638575 -25.651878414585067, 27.912534208688886 -24.061212378833442 M23.525685893092305 -25.616254541371017 C26.659555121285653 -26.363376749115996, 27.080943421754053 -26.549227509347535, 25.513588501545602 -24.54944189231377 M26.025344940973447 -22.174354270799085 C25.31648015577346 -19.67633130713366, 26.514220855124293 -16.029160499153658, 26.956068564904854 -11.11430347780697 M25.878042084374464 -22.180545160197653 C25.5916601297101 -18.081228110031226, 26.46855370892491 -13.682289501675404, 25.690594617673195 -12.257210297160782 M26 -12 C27.837358819041402 -11.24330705320202, 26.385737555756045 -10.011082428786903, 20.40698300758377 -6.323240923974663 M27.44008002737537 -13.096998563501984 C26.280548458877018 -9.83620254806448, 25.587305049968695 -9.586569289970212, 24.27969237509649 -7.5493617172120135 M23.707690572645514 -8.068367828335614 C10.07072214288637 -5.853367920638621, 0.9938000044785413 -5.2993827570691705, -21.496696797106416 -10.251093123760075 M22.58972500343807 -8.484359040902927 C10.32264044401236 -7.7314269222375005, 0.030669610248877932 -8.39321495518647, -23.0752766079735 -8.577143488870934 M-22 -8 C-22.260923033303392 -8.067104259226472, -26.789697120990603 -9.06058833813034, -24.786702577676625 -12.120127028319985 M-20.808306218590587 -6.749477586243302 C-21.630429810739866 -10.118757895189336, -23.7023586845072 -10.486920847661981, -28.10745038297493 -14.037436582851223 M-25.675659319804982 -11.85102630625479 C-26.964524041693657 -15.791099324589595, -26.31980935094878 -20.04184505525045, -26.183896534191444 -20.86960195521824 M-25.812834807834587 -11.749008983396925 C-25.755400275019 -15.539510338217951, -26.274105202731675 -18.207266965904275, -25.58932388906833 -21.953449217253365 M-26 -22 C-26.075777579750866 -25.068691153361275, -23.65116657251753 -25.112985664699227, -22.188664148654787 -25.007119715306906 M-25.73102069636807 -23.90003438303247 C-23.897209843215535 -24.94548085629735, -24.65691699982416 -25.751862183022315, -24.023658864465542 -24.897046616184525 M-22 -26 C-22 -26, -22 -26, -22 -26 M-22 -26 C-22 -26, -22 -26, -22 -26" stroke="#23201D" stroke-width="3" fill="none" stroke-linecap="round" stroke-linejoin="round"></path></g></g><g transform="translate(-26 -97)"><g transform="translate(0 0) rotate(0) scale(1 1)" opacity="1"><g><path d="M-4.924441324039828 3.9388472734610547 C-4.198112846741608 2.926774935838611, -1.2636200550938954 -0.9543461041032957, -0.0542627614135851 -2.8157561951805836 C1.1550945322667252 -4.677166286257871, 1.350208829810688 -6.387576208296387, 2.3317024380420337 -7.229613273002673 C3.3131960462733794 -8.07165033770896, 5.583015991762746 -7.4423949538151115, 5.83469888797449 -7.8679785834182985" stroke="#23201D" stroke-width="2" fill="none" stroke-linecap="round" stroke-linejoin="round"></path></g><g><path d="M4.517303412351757 3.872017631676048 C4.928717162324737 2.6829759106896818, 5.987679034067938 -1.1983465065297985, 6.299098634514957 -2.9508133284784854 C6.610518234961976 -4.703280150427172, 6.6061166334487496 -5.680320128732671, 6.385821015033871 -6.642783300016075 C6.1655253966189925 -7.605246471299479, 5.116065945221732 -8.422924868438393, 4.977324924025685 -8.72559235617891" stroke="#23201D" stroke-width="2" fill="none" stroke-linecap="round" stroke-linejoin="round"></path></g><g><path d="M-3.832971364788905 0.44327904923055694 C-3.0730525428066513 0.37816452546828555, -2.0532046541583564 1.0886350488421748, -1.402774367620049 1.6612753486092622 C-0.7523440810817418 2.2339156483763496, -0.005652935155095351 3.1368170785231744, 0.06961035444093877 3.879120847833082 C0.1448736440369729 4.621424617142989, -0.543355645487257 5.3866618639504935, -0.9511946300438443 6.115097964468708 C-1.3590336146004316 6.8435340649869225, -1.6041671603178456 7.893527624521365, -2.3774235528985854 8.24973745094237 C-3.1506799454793253 8.605947277363374, -4.80002775473815 8.534081227423536, -5.590732985528282 8.252356922994732 C-6.381438216318414 7.970632618565928, -6.785131458569294 7.245772401819096, -7.121654937639375 6.559391624369546 C-7.4581784167094565 5.873010846919996, -7.750474693435057 5.025720608875076, -7.60987385994877 4.134072258297432 C-7.469273026462484 3.2424239077197874, -6.919891276759582 1.8335835021731532, -6.278049936721658 1.2095015209036792 C-5.636208596683733 0.5854195396342051, -4.128004342363703 0.43578221373030285, -3.758825819721223 0.38958037068058715 C-3.3896472970787435 0.34337852763087146, -4.010209896452374 0.8645875192061342, -4.062978800866778 0.9322904626053852" stroke="none" stroke-width="0" fill="#E8503A" stroke-linecap="round" stroke-linejoin="round"></path><path d="M-3.941991158405909 0.6129292442997558 C-3.200256558657899 0.5881518321528726, -2.2018606128038467 1.2607048861475536, -1.6131115264690838 1.7840294252235531 C-1.024362440134321 2.3073539642995526, -0.6093369459041793 2.984267471479542, -0.40949664039733236 3.752876478755753 C-0.2096563348904854 4.521485486031964, -0.09051810737020444 5.651047438420709, -0.41406969342800215 6.3956834688808195 C-0.7376212794857999 7.14031949934093, -1.5770484888270353 7.8958823040208514, -2.3508061567441185 8.220692661516416 C-3.1245638246612017 8.545503019011981, -4.257397112261338 8.626152003860142, -5.056615700930502 8.344545613854208 C-5.855834289599666 8.062939223848275, -6.694111609501535 7.269215113683554, -7.146117688759102 6.531054321480822 C-7.598123768016668 5.792893529278089, -7.927952660342047 4.735967281240543, -7.768652176475899 3.9155808606378164 C-7.609351692609751 3.09519444003509, -6.801488762207693 2.1204164812623634, -6.190314785562213 1.6087357978644619 C-5.579140808916733 1.0970551144665603, -4.5124372638284616 0.9985528705774436, -4.101608316603018 0.8454967602504082 C-3.690779369377575 0.6924406499233728, -3.7856106988289744 0.6580431782297432, -3.725341102209553 0.6903991359022497" stroke="#23201D" stroke-width="2.4" fill="none" stroke-linecap="round" stroke-linejoin="round"></path></g><g><path d="M5.212859290757806 2.0978248048361032 C5.925092036308291 2.1128995228442062, 6.806651920586948 2.6212758775259815, 7.2654464728139345 3.2243934436741006 C7.7242410250409215 3.82751100982222, 7.979345544787601 5.0038575517523505, 7.965626604119727 5.71653020172482 C7.951907663451853 6.429202851697289, 7.597826748924603 6.963585467861399, 7.1831328288066905 7.500429343508918 C6.768438908688778 8.037273219156438, 6.198678553640083 8.7802520487176, 5.477463083412252 8.937593455609935 C4.756247613184422 9.09493486250227, 3.526660555565333 8.76978047589986, 2.855840007439706 8.44447778486293 C2.185019459314079 8.119175093825998, 1.7385820140759407 7.640796970527967, 1.4525397946584886 6.985777309388341 C1.1664975752410365 6.330757648248715, 0.8798558865183499 5.279291614009948, 1.1395866909349932 4.514359818025171 C1.3993174953516365 3.7494280220403935, 2.3904920659225595 2.779211991628228, 3.010924621158348 2.396186533479676 C3.6313571763941366 2.013161075331124, 4.504390179198405 2.2544965922848883, 4.8621820223497245 2.216207069133859 C5.219973865501044 2.1779175459828295, 5.108799710998391 2.171676623136058, 5.157675680066262 2.166449394573501" stroke="none" stroke-width="0" fill="#E8503A" stroke-linecap="round" stroke-linejoin="round"></path><path d="M4.333528213875735 1.8232042195737033 C5.031694162583122 1.6491026651055163, 5.7169521386199635 2.2231391188962433, 6.351669299910127 2.6788229506578403 C6.986386461200291 3.1345067824194373, 7.9490509668134814 3.7812784692041466, 8.141831181616716 4.557307210143286 C8.334611396419952 5.333335951082425, 7.896469573239822 6.626644296691222, 7.508350588729536 7.334995396292675 C7.120231604219251 8.043346495894129, 6.437796521312422 8.52284815372803, 5.813117274555007 8.80741380775201 C5.188438027797592 9.09197946177599, 4.4368337428087665 9.245903378556935, 3.7602751081850485 9.042389320436559 C3.0837164735613305 8.838875262316183, 2.2474466954301104 8.218939862033308, 1.7537654668126996 7.586329459029747 C1.2600842381952888 6.953719056026186, 0.74268774830051 5.940207870905252, 0.7981877364805832 5.246726902415194 C0.8536877246606563 4.553245933925136, 1.5294813838390917 3.9941006450888974, 2.0867653958931385 3.4254436480893977 C2.6440494079471852 2.856786651089898, 3.815119627908442 2.064062069762939, 4.141891808804863 1.834784920418195 C4.468663989701285 1.6055077710734513, 3.989589141346901 1.9580546120259381, 4.047398481271666 2.0497807520209355" stroke="#23201D" stroke-width="2.4" fill="none" stroke-linecap="round" stroke-linejoin="round"></path></g></g></g><g transform="translate(0 -97)"><g transform="translate(0 0) rotate(0) scale(1 1)" opacity="1"><g><path d="M-6.068041614376009 -6.754767544306815 C-2.6136003642603756 -6.611750857881904, 3.2465959288850423 -7.966109751037956, 6.847402653135359 -7.446530503071845 M8.10762224864063 -7.415929364131688 C3.891975966625358 -1.6990363875631538, 2.5555377548885034 1.7003004799988917, 0.658115005528572 8.182981520318174" stroke="#23201D" stroke-width="3.2" fill="none" stroke-linecap="round" stroke-linejoin="round"></path></g><g><path d="M-2.597148656290025 1.1252122242264448 C-0.2851521885655821 0.148546096213162, 2.2716168202050024 0.6568265037611127, 4.2200252139158545 1.0291009322218596" stroke="#23201D" stroke-width="2.2" fill="none" stroke-linecap="round" stroke-linejoin="round"></path></g></g></g><g transform="translate(26 -97)"><g transform="translate(0 0) rotate(0) scale(1 1)" opacity="1"><g><path d="M-6.738700736220926 -2.823238120321184 L8.072693976107985 -3.989079291466623 L8.153521614614874 6.0418590745888645 L-7.020610520895571 5.109545849915594" stroke="none" stroke-width="0" fill="#7B5BA6" stroke-linecap="round" stroke-linejoin="round"></path><path d="M-8.608487987676636 -5.023653138866647 C-1.0548256013263013 -3.8465306969083843, 6.034592238133774 -2.551083891252428, 8.835666795512662 -4.88811380832456 M-8.641779172564856 -3.632438878198154 C-4.981560489940456 -5.106731089073977, -1.2253696650965127 -4.710419503021798, 9.690142633323557 -5.304946838547475 M8.086906108649448 -4.275229382516816 C8.45840448061198 -2.05302225776948, 9.66768294296235 2.0259951678048824, 9.423064676852897 4.839016366181895 M9.144714738517068 -5.048857042594812 C8.959851707035341 -3.0486501654898746, 9.425735271060503 -0.2731207013716921, 8.782061750172637 4.196742583380081 M7.192232386311516 4.769519643196835 C-0.009659033389762373 5.084945393596589, -6.915085161114112 3.966570082400739, -10.185020320275799 4.864119966933504 M8.1922810401069 3.6480870001716537 C5.289390636202879 4.622753725186176, 1.9717317128973075 5.41280269412715, -9.698099237973802 4.181683766613714 M-9.654532476035877 3.658849272130057 C-8.848692517042906 1.9678057097997517, -9.52695710355118 -0.7070258183050899, -9.164210085658356 -4.649044814528897 M-9.014610083253123 5.042671288506128 C-9.128202052860969 1.9994212036961687, -9.066860898732655 -1.4182999342372637, -9.279755535663105 -4.367461993767879" stroke="#23201D" stroke-width="2.6" fill="none" stroke-linecap="round" stroke-linejoin="round"></path></g><g><path d="M-6.779801398403943 -0.91330235671252 C-2.5038244426622986 -1.1327025374919175, 3.209109414629638 0.4309359434098004, 5.053748166672886 -1.2822465331479906" stroke="#F7F3E9" stroke-width="2" fill="none" stroke-linecap="round" stroke-linejoin="round"></path></g></g></g><g transform="translate(0 0) rotate(0) scale(1 1)" opacity="1"><g><path d="M-42.89025276063299 -123.35208934950754 C-42.012966033140344 -123.33576832889104, -40.59404728497749 -122.05176486160167, -40.1408609353759 -120.95483319191398 C-39.6876745857743 -119.85790152222629, -40.20378145837753 -117.72741442277791, -40.171134663023444 -116.77049933138142 C-40.13848786766936 -115.81358423998492, -39.14179204300877 -115.8266082737259, -39.9449801632514 -115.213342643535 C-40.74816828349403 -114.6000770133441, -43.72623457066037 -113.44493133944358, -44.99026338447923 -113.090905550236 C-46.25429219829809 -112.73687976102842, -46.91570140526355 -112.4493955295827, -47.529153046164545 -113.0891879082895 C-48.14260468706554 -113.7289802869963, -48.51933450008742 -115.55459180542898, -48.6709732298852 -116.92965982247684 C-48.82261195968298 -118.30472783952469, -48.71970696902698 -120.2217023995013, -48.43898542495125 -121.3395960105766 C-48.158263880875516 -122.4574896216519, -48.08300619508354 -123.46771947293016, -46.98664396543082 -123.63702148892865 C-45.8902817357781 -123.80632350492715, -42.756030447749296 -122.74925487398873, -41.86081204703493 -122.35540810656761 C-40.96559364632057 -121.96156133914648, -41.61411567171095 -121.47394121821682, -41.615333561144645 -121.2739408844019" stroke="none" stroke-width="0" fill="#F2B33D" stroke-linecap="round" stroke-linejoin="round"></path><path d="M-42.52659747954722 -122.42379060459187 C-41.86562042088539 -121.72723700357072, -41.232918530838774 -120.03425043005245, -40.75965727788059 -118.90642970647 C-40.28639602492241 -117.77860898288756, -39.59916469195605 -116.54592423893854, -39.68702996179812 -115.6568662630972 C-39.77489523164019 -114.76780828725586, -40.387345139291384 -114.20642168154215, -41.28684889693299 -113.57208185142198 C-42.18635265457459 -112.93774202130182, -43.80462332836894 -111.5998552222933, -45.08405250764775 -111.8508272823762 C-46.363481686926555 -112.1017993424591, -48.09843482909097 -114.09700440509356, -48.96342397260583 -115.07791421191939 C-49.82841311612069 -116.05882401874523, -50.238531932446726 -116.67753581031045, -50.27398736873691 -117.73628612333121 C-50.309442805027096 -118.79503643635198, -50.10351782132549 -120.62557656977772, -49.17615659034693 -121.43041609004396 C-48.248795359368366 -122.2352556103102, -45.97616726813077 -122.31646004081716, -44.70981998286555 -122.56532324492869 C-43.44347269760032 -122.81418644904022, -42.090204844622875 -122.9906445455106, -41.57807287875556 -122.92359531471313 C-41.06594091288825 -122.85654608391565, -41.415705365528844 -122.45899819546267, -41.637028187661656 -122.1630278601438" stroke="#23201D" stroke-width="2.4" fill="none" stroke-linecap="round" stroke-linejoin="round"></path></g><g><path d="M-31.51030313750113 -138.4493859904255 C-30.59769382976083 -138.38904301993392, -29.38126825948142 -137.8416209880533, -29.029921889904184 -136.88439710002885 C-28.678575520326948 -135.9271732120044, -29.02880329415767 -133.8646916005104, -29.40222492003772 -132.70604266227875 C-29.775646545917773 -131.54739372404708, -30.597114128666384 -130.56313547644302, -31.270451645184494 -129.9325034706389 C-31.943789161702604 -129.30187146483476, -32.521182417378604 -128.91378537853316, -33.44225001914637 -128.92225062745402 C-34.36331762091414 -128.93071587637488, -35.76848161920938 -129.3401293239836, -36.79685725579111 -129.98329496416397 C-37.82523289237284 -130.62646060434435, -39.498968870787685 -131.73596185074425, -39.612503838636734 -132.78124446853633 C-39.72603880648578 -133.8265270863284, -37.970089340136084 -135.2333114640222, -37.478067062885394 -136.25499067091647 C-36.986044785634704 -137.27666987781075, -37.576264496623125 -138.45769070127963, -36.66037017513257 -138.911319709902 C-35.744475853642015 -139.36494871852435, -32.6712163560689 -139.24985010040447, -31.982701133942083 -138.97676472265064 C-31.294185911815262 -138.7036793448968, -32.65318529788481 -137.42662574471413, -32.52927884237164 -137.272807443379" stroke="none" stroke-width="0" fill="#F2B33D" stroke-linecap="round" stroke-linejoin="round"></path><path d="M-30.73599925715241 -138.90123685669565 C-29.96596214857482 -138.42474674151373, -29.836042225252456 -135.54537891875788, -29.48191802196533 -134.46667557295862 C-29.127793818678207 -133.38797222715937, -28.16204196956844 -133.35384042991578, -28.611254037429667 -132.42901678190015 C-29.060466105290896 -131.5041931338845, -30.9565367076497 -129.36634538478486, -32.17719042913271 -128.91773368486483 C-33.39784415061571 -128.4691219849448, -34.806065361738035 -129.45798375202804, -35.9351763663277 -129.73734658237998 C-37.06428737091737 -130.01670941273193, -38.3767208732386 -129.79122404406013, -38.95185645667071 -130.59391066697646 C-39.526992040102826 -131.39659728989278, -39.695471389186736 -133.3519395547774, -39.3859898669204 -134.553466319878 C-39.07650834465406 -135.7549930849786, -37.68340768047577 -137.10367060402646, -37.094967323072694 -137.80307125758011 C-36.50652696566962 -138.50247191113377, -37.10276707968746 -138.96157762422106, -35.855347722501975 -138.74987024119991 C-34.60792836531649 -138.53816285817877, -30.537546734389608 -137.243617302655, -29.61045117995978 -136.53282695945327 C-28.683355625529956 -135.82203661625155, -29.99728864032844 -134.5764172836953, -30.292774395923008 -134.48512818198955" stroke="#23201D" stroke-width="2.4" fill="none" stroke-linecap="round" stroke-linejoin="round"></path></g><g><path d="M-19.35341462445659 -148.4609226742397 C-18.402145148636993 -148.77033947005663, -17.134680375118595 -148.18208137281528, -16.139698400730566 -147.75436912496792 C-15.144716426342539 -147.32665687712057, -13.809106818823349 -146.6607419527673, -13.383522778128423 -145.89464918715564 C-12.957938737433498 -145.12855642154398, -13.289122218791235 -143.92361148957752, -13.586194156561012 -143.15781253129805 C-13.88326609433079 -142.39201357301857, -14.139450060213024 -142.10472642250951, -15.165954404747081 -141.29985543747887 C-16.192458749281137 -140.49498445244822, -18.492417074710932 -138.43745814066125, -19.745220223765354 -138.32858662111417 C-20.998023372819777 -138.2197151015671, -22.064190521722125 -139.60918797825587, -22.68277329907362 -140.64662632019645 C-23.301356076425115 -141.68406466213702, -23.343298682559755 -143.49411538159956, -23.45671688787432 -144.55321667275769 C-23.570135093188888 -145.6123179639158, -24.14759490461681 -146.2914036883448, -23.36328253096101 -147.00123406714525 C-22.578970157305207 -147.7110644459457, -19.423782408012737 -148.41881800478447, -18.75084264593951 -148.81219894556043 C-18.077902883866283 -149.20557988633638, -19.09648399291266 -149.30360056149107, -19.325643958521642 -149.36151971180098" stroke="none" stroke-width="0" fill="#F2B33D" stroke-linecap="round" stroke-linejoin="round"></path><path d="M-16.523084567807235 -148.2934627404022 C-15.596263998390974 -148.0087146368583, -15.660911968211867 -147.6771484879759, -15.243756530450918 -147.04933646282726 C-14.82660109268997 -146.4215244376786, -14.06296399942299 -145.39811501422898, -14.020151941241538 -144.5265905895104 C-13.977339883060086 -143.6550661647918, -14.227484992732562 -142.84651358685122, -14.98688418136221 -141.8201899145157 C-15.74628336999186 -140.7938662421802, -17.66249109019474 -138.51519540088083, -18.57654707301943 -138.3686485554974 C-19.49060305584412 -138.22210171011398, -19.588060526590496 -140.34903358847757, -20.47122007831034 -140.94090884221524 C-21.35437963003018 -141.5327840959529, -23.437403669817925 -141.20357059024283, -23.875504383338495 -141.91990007792342 C-24.313605096859064 -142.636229565604, -23.70998674772187 -144.2436278478289, -23.099824359433764 -145.23888576829867 C-22.489661971145658 -146.23414368876846, -21.351139381688654 -147.46717259567163, -20.214530053609863 -147.89144760074205 C-19.077920725531072 -148.31572260581248, -16.939861937954696 -147.7168989289253, -16.280168390961027 -147.78453579872132 C-15.620474843967358 -147.85217266851734, -16.35511010151592 -148.24427195730811, -16.25636877164785 -148.29726881951817" stroke="#23201D" stroke-width="2.4" fill="none" stroke-linecap="round" stroke-linejoin="round"></path></g><g><path d="M1.3058384984179783 -153.863484409374 C2.3535504691911036 -153.78574092928872, 3.4207922903078845 -151.62400033839208, 3.887105404286364 -150.43290703643882 C4.353418518264844 -149.24181373448556, 4.072860588667823 -147.66795230632218, 4.103717182288856 -146.7169245976544 C4.134573775909888 -145.76589688898665, 4.6496520963693255 -145.39894764807468, 4.072244966012556 -144.72674078443222 C3.4948378356557854 -144.05453392078977, 1.7874205246490456 -142.78661958567392, 0.6392744001482348 -142.6836834157997 C-0.5088717243525761 -142.58074724592547, -1.7672069270133912 -143.46456229732195, -2.816631780992309 -144.1091237651869 C-3.866056634971227 -144.75368523305184, -5.2052856972844515 -145.7008491980706, -5.657274723725273 -146.55105222298928 C-6.109263750166094 -147.40125524790795, -5.998216754178224 -148.33619689410176, -5.528565939637236 -149.2103419146989 C-5.058915125096248 -150.084486935296, -4.243645306021771 -151.11237531260474, -2.839369836479346 -151.79592234657198 C-1.4350943669369205 -152.47946938053923, 2.0901950736364263 -153.08913937416338, 2.8970868776173155 -153.31162411850238 C3.7039786815982048 -153.53410886284138, 2.2935179231765512 -153.23127579151313, 2.0019809874059886 -153.130830812606" stroke="none" stroke-width="0" fill="#F2B33D" stroke-linecap="round" stroke-linejoin="round"></path><path d="M0.5058758018601388 -152.81125289070533 C1.519456836618251 -153.11159869951527, 3.087495235110258 -153.0833326051959, 3.9006782420755304 -152.5803490767819 C4.713861249040803 -152.07736554836794, 5.237439620782643 -150.92217893689946, 5.384973843651774 -149.79335172022152 C5.532508066520904 -148.6645245035436, 5.423104860682715 -146.97392775344227, 4.785883579290314 -145.80738577671437 C4.148662297897912 -144.64084379998647, 2.5722066116337015 -143.35630925219678, 1.5616461552973662 -142.79409985985416 C0.5510856989610309 -142.23189046751153, -0.1520028306122272 -142.0915263606756, -1.277479158727698 -142.43412942265863 C-2.402955486843169 -142.77673248464166, -4.417757617808401 -143.92109188242551, -5.191211813395459 -144.84971823175235 C-5.964666008982516 -145.77834458107918, -6.14531857863598 -146.7822899694273, -5.918204332250045 -148.00588751861966 C-5.69109008586411 -149.22948506781202, -4.895493548992128 -151.3166687491592, -3.8285263350798484 -152.19130352690655 C-2.7615591211675685 -153.0659383046539, -0.34821685216620113 -153.15123151070767, 0.48359895122363383 -153.25369618510373 C1.3154147546134687 -153.3561608594998, 1.0623341775950768 -152.97146800463716, 1.1623684852591611 -152.8060915732829" stroke="#23201D" stroke-width="2.4" fill="none" stroke-linecap="round" stroke-linejoin="round"></path></g><g><path d="M17.187859631312264 -149.67688540951946 C18.00600359275379 -150.44900823852555, 17.510127308649032 -150.4768053436932, 18.41867161062727 -149.993661644161 C19.32721591260551 -149.5105179446288, 21.875269522511594 -147.56493051255478, 22.63912544318169 -146.77802321232622 C23.402981363851787 -145.99111591209765, 22.910390499613044 -146.40569490184689, 23.001807134647855 -145.27221784278962 C23.093223769682666 -144.13874078373235, 23.872700825944715 -140.8513702971713, 23.187625253390554 -139.9771608579826 C22.502549680836392 -139.1029514187939, 20.154006162010575 -140.12888808640093, 18.89135369932289 -140.02696120765756 C17.62870123663521 -139.9250343289142, 16.44973512069184 -138.9601227350973, 15.611710477264452 -139.36559958552246 C14.773685833837064 -139.77107643594763, 13.964495672907843 -141.21658964793232, 13.863205838758564 -142.45982231020864 C13.761916004609285 -143.70305497248495, 14.396710360202036 -145.63225562207577, 15.003971472368782 -146.8249955591804 C15.611232584535529 -148.017735496285, 16.701329516295498 -149.37798156292277, 17.50677251175904 -149.6162619328363 C18.31221550722258 -149.85454230274982, 19.69943701659787 -148.19651264542807, 19.836629445150024 -148.25467777866155" stroke="none" stroke-width="0" fill="#F2B33D" stroke-linecap="round" stroke-linejoin="round"></path><path d="M20.606092909582422 -148.49957716758118 C21.645994587264955 -148.1423026170288, 21.7849243461188 -147.4629561419684, 22.258288161082625 -146.65569099849927 C22.73165197604645 -145.84842585503014, 23.50150879004839 -144.60688787355602, 23.44627579936537 -143.6559863067665 C23.39104280868235 -142.70508473997697, 22.64961341874031 -141.7533084284034, 21.926890216984493 -140.9502815977621 C21.204167015228677 -140.14725476712084, 20.381308225317664 -138.86756608485825, 19.109936588830482 -138.83782532291877 C17.8385649523433 -138.8080845609793, 15.03100866164243 -139.86708162407237, 14.298660398061408 -140.7718370261253 C13.566312134480386 -141.67659242817822, 14.876413166640603 -143.37440246134057, 14.715847007344347 -144.26635773523634 C14.555280848048092 -145.15831300913212, 12.84862879793127 -145.49192755465012, 13.335263442283871 -146.1235686694999 C13.821898086636473 -146.75520978434966, 16.2046214828502 -147.69018093118115, 17.635654873459963 -148.0562044243349 C19.066688264069725 -148.42222791748867, 21.335485517919228 -148.36530586891868, 21.921463785942453 -148.3197096284224 C22.50744205396568 -148.27411338792612, 21.27070516725025 -147.6139652145921, 21.151524481599324 -147.78262698135728" stroke="#23201D" stroke-width="2.4" fill="none" stroke-linecap="round" stroke-linejoin="round"></path></g><g><path d="M34.853052226624264 -139.0996921375187 C35.876469473222684 -139.49618068689423, 37.64470757281049 -139.4265388043279, 38.13256300626438 -138.870544211951 C38.620418439718264 -138.3145496195741, 37.74534958840344 -136.8565907550591, 37.78018482734758 -135.7637245832574 C37.81502006629172 -134.67085841145573, 38.56333919919703 -133.46251505600546, 38.34157443992924 -132.31334718114084 C38.11980968066145 -131.16417930627622, 37.35567702354665 -129.47073249546585, 36.44959627174085 -128.86871733406974 C35.543515519935056 -128.26670217267363, 34.083751454734234 -128.39490048852105, 32.905089929094466 -128.70125621276418 C31.7264284034547 -129.0076119370073, 30.13260665552547 -129.61703660376264, 29.37762711790226 -130.70685167952857 C28.62264758027905 -131.7966667552945, 28.285383443582578 -134.05932656620843, 28.375212703355203 -135.24014666735965 C28.465041963127828 -136.42096676851088, 28.735425681509078 -137.3667279479601, 29.916602676538012 -137.79177228643601 C31.097779671566947 -138.21681662491193, 34.328697300591294 -137.73862558399725, 35.4622746735288 -137.79041269821522 C36.59585204646631 -137.8421998124332, 36.62933496796253 -138.20655454832752, 36.71806691416308 -138.10249497174385" stroke="none" stroke-width="0" fill="#F2B33D" stroke-linecap="round" stroke-linejoin="round"></path><path d="M34.83131203790444 -138.93385068227332 C35.99087517714416 -139.16590283095934, 38.1835119917223 -138.7736857826086, 38.68815194159607 -138.06899664265083 C39.19279189146984 -137.36430750269307, 37.81510441754232 -135.95013827548803, 37.85915173714708 -134.70571584252679 C37.90319905675184 -133.46129340956554, 39.19656712409541 -131.57894399567547, 38.95243585922461 -130.60246204488337 C38.708304594353805 -129.62598009409126, 37.41470783618977 -128.92359779516454, 36.394364147922246 -128.84682413777415 C35.37402045965472 -128.77005048038376, 33.83296964469321 -129.8589607553286, 32.830373729619474 -130.14182010054105 C31.827777814545744 -130.4246794457535, 30.881699970559715 -129.79194986773564, 30.37878865747986 -130.5439802090489 C29.875877344400003 -131.29601055036215, 29.69210033612684 -133.37373189646655, 29.81290585114034 -134.6540021484206 C29.93371136615384 -135.93427240037465, 30.074755937719036 -137.38901717698346, 31.103621747560865 -138.2256017207731 C32.13248755740269 -139.06218626456277, 35.17768823230654 -139.6926266118006, 35.98610071019131 -139.67350941115856 C36.79451318807608 -139.65439221051653, 36.074622783978604 -138.1629691877188, 35.954096614869485 -138.110898516921" stroke="#23201D" stroke-width="2.4" fill="none" stroke-linecap="round" stroke-linejoin="round"></path></g><g><path d="M47.465173255153786 -122.12535831669751 C48.574575691003645 -121.74311880021189, 49.73454673625989 -120.16556647343427, 50.0562332389013 -119.31280938908073 C50.37791974154271 -118.46005230472718, 49.77496947616506 -117.77518004077464, 49.395292271002255 -117.00881581057622 C49.01561506583945 -116.2424515803778, 48.67308226344491 -115.27388565630612, 47.77817000792446 -114.71462400789021 C46.883257752404006 -114.1553623594743, 45.04827889771817 -113.50833319193956, 44.02581873787952 -113.65324592008078 C43.00335857804087 -113.798158648222, 42.601150887569275 -114.95169240767744, 41.643409048892536 -115.58410037673757 C40.6856672102158 -116.21650834579769, 38.46280755957216 -116.65759159627582, 38.27936770581907 -117.44769373444151 C38.09592785206598 -118.23779587260721, 39.854300614943455 -119.4571276783183, 40.54276992637399 -120.3247132057317 C41.23123923780453 -121.1922987331451, 40.97044459770662 -122.40700122529002, 42.41018357440229 -122.65320689892188 C43.84992255109796 -122.89941257255374, 47.9149559251715 -122.08432183856003, 49.18120378654801 -121.80194724752288 C50.447451647924524 -121.51957265648572, 50.36801427998209 -121.20440783049587, 50.00767074266138 -120.95895935269898" stroke="none" stroke-width="0" fill="#F2B33D" stroke-linecap="round" stroke-linejoin="round"></path><path d="M43.69397348012121 -123.80852140514845 C44.637115284736666 -123.86409400821276, 46.65856698948215 -122.27066286491801, 47.62910381114648 -121.72062663751137 C48.599640632810804 -121.17059041010474, 49.346224567775565 -121.5886985391952, 49.51719441010714 -120.50830404070864 C49.68816425243871 -119.42790954222207, 49.19606593686676 -116.32656893391733, 48.6549228651359 -115.23825964659194 C48.113779793405044 -114.14995035926655, 47.080986328676154 -114.46538442788011, 46.270335979722 -113.97844831675631 C45.459685630767844 -113.49151220563252, 44.734922222488 -112.30302016254592, 43.79102077141096 -112.31664297984916 C42.847119320333924 -112.3302657971524, 41.494181311584576 -113.13194524838556, 40.60692727325978 -114.06018522057573 C39.71967323493498 -114.9884251927659, 38.33913961709542 -116.79613077468912, 38.467496541462175 -117.88608281299015 C38.59585346582893 -118.97603485129119, 40.11855435792651 -119.74046601629803, 41.37706881946033 -120.59989745038197 C42.63558328099414 -121.45932888446592, 45.31287268291655 -122.7780458942735, 46.018583310665036 -123.04267141749386 C46.724293938413524 -123.30729694071422, 45.7538928851045 -122.45258419678892, 45.61133258595127 -122.18765058970416" stroke="#23201D" stroke-width="2.4" fill="none" stroke-linecap="round" stroke-linejoin="round"></path></g></g><g transform="translate(52 -112) rotate(0)"><g transform="translate(0 0) rotate(0) scale(1 1)" opacity="1"><g><path d="M2.004876314289868 -0.015432913787662983 C-1.1692054205462337 -7.718837292678654, 2.3503687865212557 -15.610628397949041, 1.4612979101017116 -28.088581480272115 M-0.4806875714100897 1.1302404635585845 C0.16225546682700515 -5.974140784796329, -0.029614528170973056 -14.233613032754512, -1.1439654030837119 -29.65397225385532" stroke="#23201D" stroke-width="4.2" fill="none" stroke-linecap="round" stroke-linejoin="round"></path></g><g><path d="M2.3881052839767096 -44.85480498255224 C4.013736938645398 -44.51005227005054, 7.0501615083306 -42.255243328976555, 7.8810011311494526 -40.62552560953072 C8.711840753968305 -38.99580789008488, 7.937484376693146 -36.49530056309608, 7.373143020889826 -35.076498665877224 C6.808801665086505 -33.65769676865837, 5.618069753670101 -33.01746812159347, 4.49495299632953 -32.11271422621758 C3.3718362389889585 -31.207960330841686, 2.389735679824806 -29.7588266571687, 0.6344424768463977 -29.647975293621876 C-1.1208507261320106 -29.53712393007505, -4.745806254035936 -30.48726511474266, -6.03680622154092 -31.447606044936627 C-7.327806189045904 -32.4079469751306, -7.092222212479951 -34.005715500875866, -7.111557328183505 -35.41002087478569 C-7.130892443887058 -36.81432624869551, -6.931734467079665 -38.313220966883065, -6.152816915762241 -39.873438288395555 C-5.373899364444816 -41.433655609908044, -4.001060057350549 -44.031357059584266, -2.438052020278959 -44.77132480386062 C-0.8750439832073689 -45.51129254813698, 2.117825860176346 -44.81497740648198, 3.225231306667299 -44.31324475405367 C4.332636753158252 -43.81151210162536, 4.043853875676525 -41.958831425722174, 4.20638065866676 -41.76092888929075 M-1.441597183716025 -44.66054056880052 C-0.2369300480611034 -44.915863846045966, 0.19426780837843616 -42.996369525629845, 1.7608624643493214 -42.481014251232324 C3.3274571203202066 -41.9656589768348, 7.090205331144112 -42.61730731008666, 7.957970752109287 -41.56840892241539 C8.825736173074462 -40.519510534744114, 7.650976850956052 -38.055028007577675, 6.9674549901403715 -36.187623925204676 C6.283933129324691 -34.320219842831676, 5.335709909018803 -31.320438662104323, 3.856839587215201 -30.36398442817739 C2.3779692654115987 -29.407530194250455, -0.37844952481865435 -30.059590301431193, -1.9057669406812425 -30.44889852164308 C-3.433084356543831 -30.838206741854968, -4.367874095511909 -31.547398493040177, -5.30706490796033 -32.699833749448715 C-6.24625572040875 -33.85226900585725, -7.5458278982736795 -35.96227289896382, -7.540911815371766 -37.36351006009431 C-7.5359957324698525 -38.76474722122481, -6.234891804914444 -39.74589027745889, -5.277568410548847 -41.10725671623171 C-4.32024501618325 -42.46862315500453, -2.0653007798438363 -45.12200982253985, -1.7969714491781839 -45.531708692731215 C-1.5286421185125312 -45.94140756292258, -3.556714920414024 -43.89856576655562, -3.667592426554931 -43.565449937379896" stroke="none" stroke-width="0" fill="#F2B33D" stroke-linecap="round" stroke-linejoin="round"></path><path d="M3.746057455609333 -44.061829561788954 C5.228493051524091 -43.71579321139667, 6.196379498178269 -41.8488358077003, 6.973895688084649 -40.509800363533266 C7.75141187799103 -39.170764919366235, 8.683045063956323 -37.6556430642542, 8.41115459504762 -36.02761689678678 C8.139264126138917 -34.399590729319364, 6.866903318045129 -31.78224740473612, 5.342552874632428 -30.741643358728755 C3.818202431219728 -29.70103931272139, 1.0106166910829053 -29.547473990760487, -0.7349480654285853 -29.783992620742605 C-2.4805128219400756 -30.020511250724724, -4.048970723417186 -31.26129558434473, -5.130835664436514 -32.16075513862147 C-6.212700605455842 -33.06021469289821, -6.854450863219382 -33.7393749986244, -7.226137711544551 -35.18074994640304 C-7.59782455986972 -36.62212489418168, -8.226415599014928 -39.49801842503403, -7.360956754387528 -40.8090048252933 C-6.49549790976013 -42.11999122555257, -3.9023274696809667 -42.638547358891614, -2.0333846437801575 -43.04666834795863 C-0.16444181787934853 -43.454789337025645, 2.6382963170006657 -43.65366774797759, 3.8527002010173255 -43.25773075969541 C5.067104085033986 -42.86179377141323, 5.097877956892262 -40.899180470090265, 5.253038660319802 -40.671046418265554 M0.7613831071941517 -44.88223716366583 C2.6528085928050267 -45.076849148815015, 4.1826825906612966 -44.05371992640766, 5.523883994137391 -42.79585368283997 C6.865085397613485 -41.53798743927228, 8.357584074998307 -39.20276902071231, 8.808591528050718 -37.33503970225967 C9.259598981103128 -35.46731038380703, 9.089504739065223 -33.10579283342031, 8.229928712451853 -31.589477772124138 C7.370352685838483 -30.07316271082796, 5.575094768994051 -28.664460601593078, 3.6511353683704995 -28.237149334482616 C1.7271759677469485 -27.809838067372155, -1.8198887160034791 -28.2435136427293, -3.3138276912894526 -29.025610169461363 C-4.807766666575426 -29.807706696193424, -4.539659600182446 -31.639295100806265, -5.31249848334534 -32.929728494874986 C-6.085337366508234 -34.22016188894371, -7.9905951321751205 -35.303516774045484, -7.9508609902668175 -36.76821053387368 C-7.911126848358514 -38.23290429370187, -6.4131624326561045 -40.39983003997395, -5.07409363189552 -41.717891053844134 C-3.735024831134936 -43.03595206771432, -0.5697369153900065 -44.4178648872688, 0.08355181429668519 -44.67657661709481 C0.736840543983377 -44.93528834692082, -0.9500386919168936 -43.34754803779923, -1.15436125377537 -43.27016143280019" stroke="#23201D" stroke-width="3" fill="none" stroke-linecap="round" stroke-linejoin="round"></path></g></g></g></g></svg>
