<?xml version="1.0" encoding="UTF-8"?>
<svg xmlns="http://www.w3.org/2000/svg" width="140" height="140" viewBox="-70 -70 140 140"><g transform="translate(0 0) rotate(0) scale(1 1)" opacity="1"><path d="M -44 -37 C -20 -39 20 -39.5 44.5 -37.5 C 46 -12 45.5 12 44 38 C 20 39.5 -20 40 -44.5 38.5 C -46 12.5 -45.5 -12 -44 -37 Z" fill="#C9C2B4" transform="translate(2.6 2.2)"></path><path d="M -44 -37 C -20 -39 20 -39.5 44.5 -37.5 C 46 -12 45.5 12 44 38 C 20 39.5 -20 40 -44.5 38.5 C -46 12.5 -45.5 -12 -44 -37 Z" fill="none" stroke="#23201D" stroke-width="4.4" stroke-linejoin="round"></path><path d="M 0.8 -38 C -0.6 -13 0.6 13 -0.4 39" stroke="#23201D" stroke-width="2.8" stroke-linecap="round" stroke-linejoin="round" fill="none"></path><path d="M -44.5 1 C -20 -0.4 20 0.8 44.5 -0.6" stroke="#23201D" stroke-width="2.8" stroke-linecap="round" stroke-linejoin="round" fill="none"></path><path d="M -51 41.5 C -20 43 20 43.5 49.5 42" stroke="#23201D" stroke-width="4.4" stroke-linecap="round" stroke-linejoin="round" fill="none"></path></g></svg>
